<svg width="173" height="161" viewBox="0 0 173 161" fill="none" xmlns="http://www.w3.org/2000/svg">
<circle cx="86.2845" cy="80.348" r="78.7534" fill="white" stroke="url(#paint0_linear_179_9741)" stroke-width="1.99376"/>
<circle cx="86.2839" cy="80.3474" r="68.1201" fill="#0065C0" stroke="url(#paint1_linear_179_9741)" stroke-width="1.99376"/>
<g filter="url(#filter0_d_179_9741)">
<circle cx="86.2839" cy="80.3484" r="50.5085" fill="white"/>
<circle cx="86.2839" cy="80.3484" r="49.5116" stroke="url(#paint2_linear_179_9741)" stroke-width="1.99376"/>
</g>
<circle cx="165.033" cy="80.0153" r="5.98127" fill="white" stroke="url(#paint3_linear_179_9741)" stroke-width="1.99376"/>
<circle cx="7.52991" cy="80.0153" r="5.98127" fill="white" stroke="url(#paint4_linear_179_9741)" stroke-width="1.99376"/>
<path d="M80.0256 82.7844C78.8365 82.7844 77.7545 82.5115 76.7798 81.9657C75.8051 81.4101 74.9619 80.6449 74.2504 79.6702C73.5486 78.6955 73.0076 77.5697 72.6275 76.2928C72.2473 75.0061 72.0573 73.6318 72.0573 72.1697C72.0573 70.7076 72.2473 69.3381 72.6275 68.0612C73.0076 66.7746 73.5486 65.6439 74.2504 64.6692C74.9619 63.6944 75.8051 62.9341 76.7798 62.3883C77.7545 61.8327 78.8365 61.5549 80.0256 61.5549C81.2148 61.5549 82.2968 61.8327 83.2715 62.3883C84.2462 62.9341 85.0796 63.6944 85.7717 64.6692C86.4735 65.6439 87.0144 66.7746 87.3946 68.0612C87.7845 69.3381 87.9794 70.7076 87.9794 72.1697C87.9794 73.6318 87.7845 75.0061 87.3946 76.2928C87.0144 77.5697 86.4735 78.6955 85.7717 79.6702C85.0796 80.6449 84.2462 81.4101 83.2715 81.9657C82.2968 82.5115 81.2148 82.7844 80.0256 82.7844ZM80.0256 79.2169C81.0686 79.2169 81.9312 78.8855 82.6135 78.2227C83.2958 77.5599 83.8027 76.6924 84.1341 75.6202C84.4655 74.548 84.6312 73.3978 84.6312 72.1697C84.6312 70.8733 84.4558 69.6939 84.1049 68.6314C83.754 67.5592 83.2374 66.7063 82.5551 66.0728C81.8727 65.4392 81.0296 65.1224 80.0256 65.1224C79.2361 65.1224 78.5489 65.3173 77.9641 65.7072C77.389 66.0874 76.9114 66.6089 76.5312 67.2717C76.1511 67.9345 75.8684 68.6899 75.6832 69.5379C75.498 70.3762 75.4054 71.2534 75.4054 72.1697C75.4054 73.3881 75.5711 74.5383 75.9025 75.6202C76.2437 76.6924 76.7554 77.5599 77.4377 78.2227C78.1298 78.8855 78.9924 79.2169 80.0256 79.2169ZM96.3277 82.7844C95.0898 82.7844 93.9737 82.492 92.9795 81.9072C91.9853 81.3224 91.1958 80.5377 90.6109 79.5532C90.0261 78.559 89.7337 77.4576 89.7337 76.2489H93.3012C93.3012 76.7947 93.4279 77.2919 93.6813 77.7402C93.9445 78.1886 94.3051 78.5493 94.7633 78.8222C95.2214 79.0854 95.7429 79.2169 96.3277 79.2169C96.8638 79.2169 97.3609 79.0854 97.819 78.8222C98.2869 78.5493 98.6622 78.1886 98.9448 77.7402C99.2275 77.2919 99.3689 76.7947 99.3689 76.2489C99.3689 75.5374 99.1788 74.9476 98.7986 74.4798C98.4185 74.0022 97.8873 73.6464 97.205 73.4124C96.5324 73.1785 95.7477 73.0615 94.851 73.0615V70.3128C96.0597 70.3128 97.0149 70.0838 97.7167 69.6256C98.4282 69.1675 98.784 68.495 98.784 67.608C98.784 67.1498 98.667 66.7307 98.4331 66.3506C98.1992 65.9704 97.8873 65.6683 97.4974 65.4441C97.1172 65.2101 96.6981 65.0932 96.24 65.0932C95.7721 65.0932 95.3189 65.2101 94.8802 65.4441C94.4416 65.6683 94.081 65.9704 93.7983 66.3506C93.5254 66.7307 93.3889 67.1498 93.3889 67.608H89.8214C89.8214 66.7697 89.992 65.985 90.3331 65.254C90.6743 64.5132 91.1422 63.865 91.7367 63.3094C92.3411 62.7538 93.0234 62.3201 93.7837 62.0082C94.5537 61.6865 95.3579 61.5257 96.1961 61.5257C97.2976 61.5257 98.3161 61.7986 99.2519 62.3444C100.188 62.8903 100.938 63.6213 101.504 64.5376C102.069 65.4538 102.352 66.4773 102.352 67.608C102.352 68.3975 102.166 69.1724 101.796 69.9327C101.426 70.693 100.899 71.2291 100.217 71.541C100.811 71.7554 101.309 72.1161 101.708 72.6229C102.108 73.12 102.41 73.6902 102.615 74.3336C102.829 74.9671 102.936 75.6056 102.936 76.2489C102.936 77.4478 102.634 78.5444 102.03 79.5386C101.426 80.5231 100.621 81.3126 99.6174 81.9072C98.6232 82.492 97.5266 82.7844 96.3277 82.7844Z" fill="#2E2E2E"/>
<path d="M76.3222 96.8935C75.8215 96.8935 75.3386 96.816 74.8734 96.6609C74.4082 96.5014 74.0006 96.2754 73.6505 95.983C73.305 95.6906 73.0591 95.3428 72.9129 94.9396L73.9563 94.5475C74.0449 94.7956 74.2088 95.0127 74.4481 95.1988C74.6917 95.3805 74.9775 95.5222 75.3054 95.6241C75.6332 95.726 75.9722 95.777 76.3222 95.777C76.7209 95.777 77.0909 95.7127 77.432 95.5843C77.7776 95.4513 78.0568 95.2675 78.2694 95.0327C78.4821 94.7978 78.5884 94.5231 78.5884 94.2086C78.5884 93.8851 78.4777 93.6215 78.2561 93.4177C78.0346 93.2095 77.751 93.0455 77.4055 92.9259C77.0599 92.8019 76.6988 92.7066 76.3222 92.6401C75.6798 92.5338 75.1038 92.3832 74.5943 92.1882C74.0892 91.9889 73.6882 91.7119 73.3914 91.3575C73.0989 91.003 72.9527 90.5356 72.9527 89.9552C72.9527 89.4147 73.1078 88.9428 73.4179 88.5396C73.7325 88.1365 74.1468 87.8241 74.6607 87.6026C75.1747 87.3811 75.7285 87.2703 76.3222 87.2703C76.814 87.2703 77.2903 87.3478 77.751 87.5029C78.2163 87.6535 78.6261 87.8751 78.9805 88.1675C79.335 88.4599 79.5897 88.8166 79.7448 89.2375L78.6881 89.6229C78.5995 89.3704 78.4334 89.1533 78.1897 88.9716C77.9504 88.7855 77.6669 88.6438 77.339 88.5463C77.0156 88.4444 76.6766 88.3934 76.3222 88.3934C75.9279 88.389 75.5601 88.4533 75.219 88.5862C74.8778 88.7191 74.6009 88.903 74.3882 89.1378C74.1756 89.3726 74.0692 89.6451 74.0692 89.9552C74.0692 90.3274 74.1667 90.6132 74.3617 90.8125C74.561 91.0075 74.8313 91.1537 75.1725 91.2512C75.5136 91.3486 75.8968 91.435 76.3222 91.5103C76.9247 91.6123 77.483 91.774 77.9969 91.9955C78.5109 92.2126 78.9229 92.5028 79.2331 92.8661C79.5476 93.2294 79.7049 93.6769 79.7049 94.2086C79.7049 94.7491 79.5476 95.221 79.2331 95.6241C78.9229 96.0273 78.5109 96.3397 77.9969 96.5612C77.483 96.7827 76.9247 96.8935 76.3222 96.8935ZM87.9108 87.4165V88.533H84.8138V96.7207H83.6973V88.533H80.607V87.4165H87.9108ZM89.2451 96.7207V87.4165H94.9539V88.533H90.3616V91.1781H94.1231V92.2946H90.3616V95.6042H94.9539V96.7207H89.2451ZM96.488 96.7207V87.4165H99.5584C100.059 87.4165 100.509 87.5383 100.908 87.782C101.311 88.0257 101.63 88.3558 101.865 88.7723C102.104 89.1843 102.223 89.6451 102.223 90.1546C102.223 90.673 102.102 91.1404 101.858 91.5569C101.619 91.9689 101.295 92.2968 100.888 92.5405C100.484 92.7797 100.041 92.8993 99.5584 92.8993H97.6045V96.7207H96.488ZM97.6045 91.7828H99.4587C99.76 91.7828 100.035 91.7097 100.283 91.5635C100.535 91.4129 100.735 91.2113 100.881 90.9587C101.032 90.7018 101.107 90.4138 101.107 90.0948C101.107 89.7713 101.032 89.4834 100.881 89.2308C100.735 88.9738 100.535 88.7723 100.283 88.626C100.035 88.4754 99.76 88.4001 99.4587 88.4001H97.6045V91.7828Z" fill="#2E2E2E"/>
<defs>
<filter id="filter0_d_179_9741" x="31.7879" y="29.8398" width="108.992" height="111.651" filterUnits="userSpaceOnUse" color-interpolation-filters="sRGB">
<feFlood flood-opacity="0" result="BackgroundImageFix"/>
<feColorMatrix in="SourceAlpha" type="matrix" values="0 0 0 0 0 0 0 0 0 0 0 0 0 0 0 0 0 0 127 0" result="hardAlpha"/>
<feOffset dy="6.64586"/>
<feGaussianBlur stdDeviation="1.99376"/>
<feComposite in2="hardAlpha" operator="out"/>
<feColorMatrix type="matrix" values="0 0 0 0 0 0 0 0 0 0.315009 0 0 0 0 0.598828 0 0 0 1 0"/>
<feBlend mode="normal" in2="BackgroundImageFix" result="effect1_dropShadow_179_9741"/>
<feBlend mode="normal" in="SourceGraphic" in2="effect1_dropShadow_179_9741" result="shape"/>
</filter>
<linearGradient id="paint0_linear_179_9741" x1="86.2845" y1="0.597656" x2="142.442" y2="157.772" gradientUnits="userSpaceOnUse">
<stop stop-color="#0065C0"/>
<stop offset="1" stop-color="#A3DC2F"/>
</linearGradient>
<linearGradient id="paint1_linear_179_9741" x1="86.2839" y1="11.2305" x2="134.954" y2="147.448" gradientUnits="userSpaceOnUse">
<stop stop-color="#0065C0"/>
<stop offset="1" stop-color="#A3DC2F"/>
</linearGradient>
<linearGradient id="paint2_linear_179_9741" x1="86.2839" y1="29.8398" x2="121.85" y2="129.384" gradientUnits="userSpaceOnUse">
<stop stop-color="#0065C0"/>
<stop offset="1" stop-color="#A3DC2F"/>
</linearGradient>
<linearGradient id="paint3_linear_179_9741" x1="165.033" y1="73.0371" x2="169.947" y2="86.7899" gradientUnits="userSpaceOnUse">
<stop stop-color="#0065C0"/>
<stop offset="1" stop-color="#A3DC2F"/>
</linearGradient>
<linearGradient id="paint4_linear_179_9741" x1="7.52991" y1="73.0371" x2="12.4437" y2="86.7899" gradientUnits="userSpaceOnUse">
<stop stop-color="#0065C0"/>
<stop offset="1" stop-color="#A3DC2F"/>
</linearGradient>
</defs>
</svg>
