<svg width="172" height="161" viewBox="0 0 172 161" fill="none" xmlns="http://www.w3.org/2000/svg">
<circle cx="85.8558" cy="80.348" r="78.7534" fill="white" stroke="url(#paint0_linear_179_9754)" stroke-width="1.99376"/>
<circle cx="85.8552" cy="80.3474" r="68.1201" fill="#0065C0" stroke="url(#paint1_linear_179_9754)" stroke-width="1.99376"/>
<g filter="url(#filter0_d_179_9754)">
<circle cx="85.8552" cy="80.3484" r="50.5085" fill="white"/>
<circle cx="85.8552" cy="80.3484" r="49.5116" stroke="url(#paint2_linear_179_9754)" stroke-width="1.99376"/>
</g>
<circle cx="164.604" cy="80.0153" r="5.98127" fill="white" stroke="url(#paint3_linear_179_9754)" stroke-width="1.99376"/>
<circle cx="7.1012" cy="80.0153" r="5.98127" fill="white" stroke="url(#paint4_linear_179_9754)" stroke-width="1.99376"/>
<path d="M79.6117 82.7844C78.4226 82.7844 77.3406 82.5115 76.3659 81.9657C75.3912 81.4101 74.548 80.6449 73.8365 79.6702C73.1347 78.6955 72.5937 77.5697 72.2136 76.2928C71.8334 75.0061 71.6433 73.6318 71.6433 72.1697C71.6433 70.7076 71.8334 69.3381 72.2136 68.0612C72.5937 66.7746 73.1347 65.6439 73.8365 64.6692C74.548 63.6944 75.3912 62.9341 76.3659 62.3883C77.3406 61.8327 78.4226 61.5549 79.6117 61.5549C80.8009 61.5549 81.8828 61.8327 82.8576 62.3883C83.8323 62.9341 84.6657 63.6944 85.3577 64.6692C86.0595 65.6439 86.6005 66.7746 86.9807 68.0612C87.3706 69.3381 87.5655 70.7076 87.5655 72.1697C87.5655 73.6318 87.3706 75.0061 86.9807 76.2928C86.6005 77.5697 86.0595 78.6955 85.3577 79.6702C84.6657 80.6449 83.8323 81.4101 82.8576 81.9657C81.8828 82.5115 80.8009 82.7844 79.6117 82.7844ZM79.6117 79.2169C80.6547 79.2169 81.5173 78.8855 82.1996 78.2227C82.8819 77.5599 83.3888 76.6924 83.7202 75.6202C84.0516 74.548 84.2173 73.3978 84.2173 72.1697C84.2173 70.8733 84.0419 69.6939 83.691 68.6314C83.3401 67.5592 82.8235 66.7063 82.1411 66.0728C81.4588 65.4392 80.6157 65.1224 79.6117 65.1224C78.8222 65.1224 78.135 65.3173 77.5502 65.7072C76.9751 66.0874 76.4975 66.6089 76.1173 67.2717C75.7372 67.9345 75.4545 68.6899 75.2693 69.5379C75.0841 70.3762 74.9915 71.2534 74.9915 72.1697C74.9915 73.3881 75.1572 74.5383 75.4886 75.6202C75.8298 76.6924 76.3415 77.5599 77.0238 78.2227C77.7159 78.8855 78.5785 79.2169 79.6117 79.2169ZM98.3262 82.4043V77.4478H89.6122V73.8657L97.4929 61.935H101.894V73.8803H103.619V77.4478H101.894V82.4043H98.3262ZM93.7499 73.8657L98.3262 73.8803L98.3116 66.8038L93.7499 73.8657Z" fill="#2E2E2E"/>
<path d="M76.8935 96.8935C76.3928 96.8935 75.9099 96.816 75.4447 96.6609C74.9795 96.5014 74.5719 96.2754 74.2218 95.983C73.8763 95.6906 73.6304 95.3428 73.4841 94.9396L74.5275 94.5475C74.6162 94.7956 74.7801 95.0127 75.0193 95.1988C75.263 95.3805 75.5488 95.5222 75.8767 95.6241C76.2045 95.726 76.5435 95.777 76.8935 95.777C77.2922 95.777 77.6622 95.7127 78.0033 95.5843C78.3489 95.4513 78.628 95.2675 78.8407 95.0327C79.0534 94.7978 79.1597 94.5231 79.1597 94.2086C79.1597 93.8851 79.0489 93.6215 78.8274 93.4177C78.6059 93.2095 78.3223 93.0455 77.9767 92.9259C77.6312 92.8019 77.2701 92.7066 76.8935 92.6401C76.251 92.5338 75.6751 92.3832 75.1655 92.1882C74.6605 91.9889 74.2595 91.7119 73.9626 91.3575C73.6702 91.003 73.524 90.5356 73.524 89.9552C73.524 89.4147 73.6791 88.9428 73.9892 88.5396C74.3038 88.1365 74.7181 87.8241 75.232 87.6026C75.746 87.3811 76.2998 87.2703 76.8935 87.2703C77.3853 87.2703 77.8616 87.3478 78.3223 87.5029C78.7875 87.6535 79.1974 87.8751 79.5518 88.1675C79.9063 88.4599 80.161 88.8166 80.3161 89.2375L79.2594 89.6229C79.1708 89.3704 79.0046 89.1533 78.761 88.9716C78.5217 88.7855 78.2382 88.6438 77.9103 88.5463C77.5869 88.4444 77.2479 88.3934 76.8935 88.3934C76.4992 88.389 76.1314 88.4533 75.7903 88.5862C75.4491 88.7191 75.1722 88.903 74.9595 89.1378C74.7469 89.3726 74.6405 89.6451 74.6405 89.9552C74.6405 90.3274 74.738 90.6132 74.9329 90.8125C75.1323 91.0075 75.4026 91.1537 75.7437 91.2512C76.0849 91.3486 76.4681 91.435 76.8935 91.5103C77.496 91.6123 78.0543 91.774 78.5682 91.9955C79.0822 92.2126 79.4942 92.5028 79.8044 92.8661C80.1189 93.2294 80.2762 93.6769 80.2762 94.2086C80.2762 94.7491 80.1189 95.221 79.8044 95.6241C79.4942 96.0273 79.0822 96.3397 78.5682 96.5612C78.0543 96.7827 77.496 96.8935 76.8935 96.8935ZM88.4821 87.4165V88.533H85.3851V96.7207H84.2686V88.533H81.1783V87.4165H88.4821ZM89.8163 96.7207V87.4165H95.5251V88.533H90.9329V91.1781H94.6944V92.2946H90.9329V95.6042H95.5251V96.7207H89.8163ZM97.0593 96.7207V87.4165H100.13C100.63 87.4165 101.08 87.5383 101.479 87.782C101.882 88.0257 102.201 88.3558 102.436 88.7723C102.675 89.1843 102.795 89.6451 102.795 90.1546C102.795 90.673 102.673 91.1404 102.429 91.5569C102.19 91.9689 101.866 92.2968 101.459 92.5405C101.056 92.7797 100.613 92.8993 100.13 92.8993H98.1758V96.7207H97.0593ZM98.1758 91.7828H100.03C100.331 91.7828 100.606 91.7097 100.854 91.5635C101.107 91.4129 101.306 91.2113 101.452 90.9587C101.603 90.7018 101.678 90.4138 101.678 90.0948C101.678 89.7713 101.603 89.4834 101.452 89.2308C101.306 88.9738 101.107 88.7723 100.854 88.626C100.606 88.4754 100.331 88.4001 100.03 88.4001H98.1758V91.7828Z" fill="#2E2E2E"/>
<defs>
<filter id="filter0_d_179_9754" x="31.3592" y="29.8398" width="108.992" height="111.651" filterUnits="userSpaceOnUse" color-interpolation-filters="sRGB">
<feFlood flood-opacity="0" result="BackgroundImageFix"/>
<feColorMatrix in="SourceAlpha" type="matrix" values="0 0 0 0 0 0 0 0 0 0 0 0 0 0 0 0 0 0 127 0" result="hardAlpha"/>
<feOffset dy="6.64586"/>
<feGaussianBlur stdDeviation="1.99376"/>
<feComposite in2="hardAlpha" operator="out"/>
<feColorMatrix type="matrix" values="0 0 0 0 0 0 0 0 0 0.315009 0 0 0 0 0.598828 0 0 0 1 0"/>
<feBlend mode="normal" in2="BackgroundImageFix" result="effect1_dropShadow_179_9754"/>
<feBlend mode="normal" in="SourceGraphic" in2="effect1_dropShadow_179_9754" result="shape"/>
</filter>
<linearGradient id="paint0_linear_179_9754" x1="85.8558" y1="0.597656" x2="142.013" y2="157.772" gradientUnits="userSpaceOnUse">
<stop stop-color="#0065C0"/>
<stop offset="1" stop-color="#A3DC2F"/>
</linearGradient>
<linearGradient id="paint1_linear_179_9754" x1="85.8552" y1="11.2305" x2="134.525" y2="147.448" gradientUnits="userSpaceOnUse">
<stop stop-color="#0065C0"/>
<stop offset="1" stop-color="#A3DC2F"/>
</linearGradient>
<linearGradient id="paint2_linear_179_9754" x1="85.8552" y1="29.8398" x2="121.422" y2="129.384" gradientUnits="userSpaceOnUse">
<stop stop-color="#0065C0"/>
<stop offset="1" stop-color="#A3DC2F"/>
</linearGradient>
<linearGradient id="paint3_linear_179_9754" x1="164.604" y1="73.0371" x2="169.518" y2="86.7899" gradientUnits="userSpaceOnUse">
<stop stop-color="#0065C0"/>
<stop offset="1" stop-color="#A3DC2F"/>
</linearGradient>
<linearGradient id="paint4_linear_179_9754" x1="7.1012" y1="73.0371" x2="12.015" y2="86.7899" gradientUnits="userSpaceOnUse">
<stop stop-color="#0065C0"/>
<stop offset="1" stop-color="#A3DC2F"/>
</linearGradient>
</defs>
</svg>
