<svg width="173" height="161" viewBox="0 0 173 161" fill="none" xmlns="http://www.w3.org/2000/svg">
<circle cx="86.3489" cy="80.348" r="78.7534" fill="white" stroke="url(#paint0_linear_179_9715)" stroke-width="1.99376"/>
<circle cx="86.3484" cy="80.3474" r="68.1201" fill="#0065C0" stroke="url(#paint1_linear_179_9715)" stroke-width="1.99376"/>
<g filter="url(#filter0_d_179_9715)">
<circle cx="86.3484" cy="80.3484" r="50.5085" fill="white"/>
<circle cx="86.3484" cy="80.3484" r="49.5116" stroke="url(#paint2_linear_179_9715)" stroke-width="1.99376"/>
</g>
<circle cx="165.097" cy="80.0153" r="5.98127" fill="white" stroke="url(#paint3_linear_179_9715)" stroke-width="1.99376"/>
<circle cx="7.59436" cy="80.0153" r="5.98127" fill="white" stroke="url(#paint4_linear_179_9715)" stroke-width="1.99376"/>
<path d="M81.7458 82.7844C80.5567 82.7844 79.4747 82.5115 78.5 81.9657C77.5253 81.4101 76.6821 80.6449 75.9706 79.6702C75.2688 78.6955 74.7278 77.5697 74.3477 76.2928C73.9675 75.0061 73.7775 73.6318 73.7775 72.1697C73.7775 70.7076 73.9675 69.3381 74.3477 68.0612C74.7278 66.7746 75.2688 65.6439 75.9706 64.6692C76.6821 63.6944 77.5253 62.9341 78.5 62.3883C79.4747 61.8327 80.5567 61.5549 81.7458 61.5549C82.935 61.5549 84.017 61.8327 84.9917 62.3883C85.9664 62.9341 86.7998 63.6944 87.4919 64.6692C88.1937 65.6439 88.7346 66.7746 89.1148 68.0612C89.5047 69.3381 89.6996 70.7076 89.6996 72.1697C89.6996 73.6318 89.5047 75.0061 89.1148 76.2928C88.7346 77.5697 88.1937 78.6955 87.4919 79.6702C86.7998 80.6449 85.9664 81.4101 84.9917 81.9657C84.017 82.5115 82.935 82.7844 81.7458 82.7844ZM81.7458 79.2169C82.7888 79.2169 83.6514 78.8855 84.3337 78.2227C85.016 77.5599 85.5229 76.6924 85.8543 75.6202C86.1857 74.548 86.3514 73.3978 86.3514 72.1697C86.3514 70.8733 86.176 69.6939 85.8251 68.6314C85.4742 67.5592 84.9576 66.7063 84.2753 66.0728C83.5929 65.4392 82.7498 65.1224 81.7458 65.1224C80.9563 65.1224 80.2691 65.3173 79.6843 65.7072C79.1092 66.0874 78.6316 66.6089 78.2514 67.2717C77.8713 67.9345 77.5886 68.6899 77.4034 69.5379C77.2182 70.3762 77.1256 71.2534 77.1256 72.1697C77.1256 73.3881 77.2913 74.5383 77.6228 75.6202C77.9639 76.6924 78.4756 77.5599 79.1579 78.2227C79.85 78.8855 80.7126 79.2169 81.7458 79.2169ZM94.3196 82.4043V65.5025H91.7463L92.7113 61.935H97.8871V82.4043H94.3196Z" fill="#2E2E2E"/>
<path d="M75.3866 96.8935C74.886 96.8935 74.403 96.816 73.9378 96.6609C73.4726 96.5014 73.065 96.2754 72.715 95.983C72.3694 95.6906 72.1235 95.3428 71.9773 94.9396L73.0207 94.5475C73.1093 94.7956 73.2733 95.0127 73.5125 95.1988C73.7562 95.3805 74.042 95.5222 74.3698 95.6241C74.6977 95.726 75.0366 95.777 75.3866 95.777C75.7854 95.777 76.1553 95.7127 76.4965 95.5843C76.8421 95.4513 77.1212 95.2675 77.3339 95.0327C77.5465 94.7978 77.6529 94.5231 77.6529 94.2086C77.6529 93.8851 77.5421 93.6215 77.3206 93.4177C77.0991 93.2095 76.8155 93.0455 76.4699 92.9259C76.1243 92.8019 75.7632 92.7066 75.3866 92.6401C74.7442 92.5338 74.1682 92.3832 73.6587 92.1882C73.1536 91.9889 72.7527 91.7119 72.4558 91.3575C72.1634 91.003 72.0172 90.5356 72.0172 89.9552C72.0172 89.4147 72.1723 88.9428 72.4824 88.5396C72.797 88.1365 73.2112 87.8241 73.7252 87.6026C74.2391 87.3811 74.7929 87.2703 75.3866 87.2703C75.8784 87.2703 76.3547 87.3478 76.8155 87.5029C77.2807 87.6535 77.6905 87.8751 78.045 88.1675C78.3994 88.4599 78.6542 88.8166 78.8093 89.2375L77.7526 89.6229C77.664 89.3704 77.4978 89.1533 77.2541 88.9716C77.0149 88.7855 76.7313 88.6438 76.4035 88.5463C76.08 88.4444 75.7411 88.3934 75.3866 88.3934C74.9923 88.389 74.6246 88.4533 74.2834 88.5862C73.9423 88.7191 73.6654 88.903 73.4527 89.1378C73.24 89.3726 73.1337 89.6451 73.1337 89.9552C73.1337 90.3274 73.2312 90.6132 73.4261 90.8125C73.6255 91.0075 73.8957 91.1537 74.2369 91.2512C74.5781 91.3486 74.9613 91.435 75.3866 91.5103C75.9892 91.6123 76.5474 91.774 77.0614 91.9955C77.5753 92.2126 77.9874 92.5028 78.2975 92.8661C78.6121 93.2294 78.7694 93.6769 78.7694 94.2086C78.7694 94.7491 78.6121 95.221 78.2975 95.6241C77.9874 96.0273 77.5753 96.3397 77.0614 96.5612C76.5474 96.7827 75.9892 96.8935 75.3866 96.8935ZM86.9753 87.4165V88.533H83.8783V96.7207H82.7618V88.533H79.6715V87.4165H86.9753ZM88.3095 96.7207V87.4165H94.0183V88.533H89.426V91.1781H93.1876V92.2946H89.426V95.6042H94.0183V96.7207H88.3095ZM95.5525 96.7207V87.4165H98.6228C99.1235 87.4165 99.5732 87.5383 99.972 87.782C100.375 88.0257 100.694 88.3558 100.929 88.7723C101.168 89.1843 101.288 89.6451 101.288 90.1546C101.288 90.673 101.166 91.1404 100.922 91.5569C100.683 91.9689 100.36 92.2968 99.952 92.5405C99.5488 92.7797 99.1058 92.8993 98.6228 92.8993H96.669V96.7207H95.5525ZM96.669 91.7828H98.5232C98.8244 91.7828 99.0991 91.7097 99.3472 91.5635C99.5998 91.4129 99.7992 91.2113 99.9454 90.9587C100.096 90.7018 100.171 90.4138 100.171 90.0948C100.171 89.7713 100.096 89.4834 99.9454 89.2308C99.7992 88.9738 99.5998 88.7723 99.3472 88.626C99.0991 88.4754 98.8244 88.4001 98.5232 88.4001H96.669V91.7828Z" fill="#2E2E2E"/>
<defs>
<filter id="filter0_d_179_9715" x="31.8523" y="29.8398" width="108.992" height="111.651" filterUnits="userSpaceOnUse" color-interpolation-filters="sRGB">
<feFlood flood-opacity="0" result="BackgroundImageFix"/>
<feColorMatrix in="SourceAlpha" type="matrix" values="0 0 0 0 0 0 0 0 0 0 0 0 0 0 0 0 0 0 127 0" result="hardAlpha"/>
<feOffset dy="6.64586"/>
<feGaussianBlur stdDeviation="1.99376"/>
<feComposite in2="hardAlpha" operator="out"/>
<feColorMatrix type="matrix" values="0 0 0 0 0 0 0 0 0 0.315009 0 0 0 0 0.598828 0 0 0 1 0"/>
<feBlend mode="normal" in2="BackgroundImageFix" result="effect1_dropShadow_179_9715"/>
<feBlend mode="normal" in="SourceGraphic" in2="effect1_dropShadow_179_9715" result="shape"/>
</filter>
<linearGradient id="paint0_linear_179_9715" x1="86.3489" y1="0.597656" x2="142.506" y2="157.772" gradientUnits="userSpaceOnUse">
<stop stop-color="#0065C0"/>
<stop offset="1" stop-color="#A3DC2F"/>
</linearGradient>
<linearGradient id="paint1_linear_179_9715" x1="86.3484" y1="11.2305" x2="135.018" y2="147.448" gradientUnits="userSpaceOnUse">
<stop stop-color="#0065C0"/>
<stop offset="1" stop-color="#A3DC2F"/>
</linearGradient>
<linearGradient id="paint2_linear_179_9715" x1="86.3484" y1="29.8398" x2="121.915" y2="129.384" gradientUnits="userSpaceOnUse">
<stop stop-color="#0065C0"/>
<stop offset="1" stop-color="#A3DC2F"/>
</linearGradient>
<linearGradient id="paint3_linear_179_9715" x1="165.097" y1="73.0371" x2="170.011" y2="86.7899" gradientUnits="userSpaceOnUse">
<stop stop-color="#0065C0"/>
<stop offset="1" stop-color="#A3DC2F"/>
</linearGradient>
<linearGradient id="paint4_linear_179_9715" x1="7.59436" y1="73.0371" x2="12.5081" y2="86.7899" gradientUnits="userSpaceOnUse">
<stop stop-color="#0065C0"/>
<stop offset="1" stop-color="#A3DC2F"/>
</linearGradient>
</defs>
</svg>
