<svg width="172" height="161" viewBox="0 0 172 161" fill="none" xmlns="http://www.w3.org/2000/svg">
<circle cx="86.0052" cy="80.348" r="78.7534" fill="white" stroke="url(#paint0_linear_179_9728)" stroke-width="1.99376"/>
<circle cx="86.0046" cy="80.3474" r="68.1201" fill="#0065C0" stroke="url(#paint1_linear_179_9728)" stroke-width="1.99376"/>
<g filter="url(#filter0_d_179_9728)">
<circle cx="86.0046" cy="80.3484" r="50.5085" fill="white"/>
<circle cx="86.0046" cy="80.3484" r="49.5116" stroke="url(#paint2_linear_179_9728)" stroke-width="1.99376"/>
</g>
<circle cx="164.754" cy="80.0153" r="5.98127" fill="white" stroke="url(#paint3_linear_179_9728)" stroke-width="1.99376"/>
<circle cx="7.25061" cy="80.0153" r="5.98127" fill="white" stroke="url(#paint4_linear_179_9728)" stroke-width="1.99376"/>
<path d="M79.8754 82.7844C78.6862 82.7844 77.6043 82.5115 76.6295 81.9657C75.6548 81.4101 74.8117 80.6449 74.1001 79.6702C73.3983 78.6955 72.8573 77.5697 72.4772 76.2928C72.0971 75.0061 71.907 73.6318 71.907 72.1697C71.907 70.7076 72.0971 69.3381 72.4772 68.0612C72.8573 66.7746 73.3983 65.6439 74.1001 64.6692C74.8117 63.6944 75.6548 62.9341 76.6295 62.3883C77.6043 61.8327 78.6862 61.5549 79.8754 61.5549C81.0645 61.5549 82.1465 61.8327 83.1212 62.3883C84.0959 62.9341 84.9293 63.6944 85.6214 64.6692C86.3232 65.6439 86.8642 66.7746 87.2443 68.0612C87.6342 69.3381 87.8291 70.7076 87.8291 72.1697C87.8291 73.6318 87.6342 75.0061 87.2443 76.2928C86.8642 77.5697 86.3232 78.6955 85.6214 79.6702C84.9293 80.6449 84.0959 81.4101 83.1212 81.9657C82.1465 82.5115 81.0645 82.7844 79.8754 82.7844ZM79.8754 79.2169C80.9183 79.2169 81.781 78.8855 82.4633 78.2227C83.1456 77.5599 83.6524 76.6924 83.9838 75.6202C84.3153 74.548 84.481 73.3978 84.481 72.1697C84.481 70.8733 84.3055 69.6939 83.9546 68.6314C83.6037 67.5592 83.0871 66.7063 82.4048 66.0728C81.7225 65.4392 80.8793 65.1224 79.8754 65.1224C79.0858 65.1224 78.3987 65.3173 77.8138 65.7072C77.2387 66.0874 76.7611 66.6089 76.381 67.2717C76.0008 67.9345 75.7182 68.6899 75.533 69.5379C75.3478 70.3762 75.2552 71.2534 75.2552 72.1697C75.2552 73.3881 75.4209 74.5383 75.7523 75.6202C76.0934 76.6924 76.6052 77.5599 77.2875 78.2227C77.9795 78.8855 78.8422 79.2169 79.8754 79.2169ZM89.8758 82.4043V79.2169C90.5094 78.7393 91.2599 78.1496 92.1275 77.4478C92.995 76.7363 93.8868 75.9711 94.8031 75.1523C95.7193 74.3238 96.5673 73.4953 97.3471 72.6668C98.1269 71.8383 98.7605 71.0487 99.2478 70.2982C99.7449 69.5477 99.9935 68.9043 99.9935 68.3682C99.9935 67.7737 99.8473 67.2327 99.5549 66.7453C99.2624 66.2482 98.8726 65.8534 98.3852 65.561C97.9076 65.2686 97.3715 65.1224 96.7769 65.1224C96.1823 65.1224 95.6413 65.2686 95.154 65.561C94.6666 65.8534 94.2767 66.2482 93.9843 66.7453C93.6919 67.2327 93.5457 67.7737 93.5457 68.3682H89.9782C89.9782 67.0816 90.2901 65.9266 90.9139 64.9031C91.5377 63.8699 92.3614 63.056 93.3848 62.4614C94.4181 61.8571 95.5487 61.5549 96.7769 61.5549C98.0245 61.5549 99.1601 61.8619 100.184 62.476C101.207 63.0804 102.026 63.8991 102.64 64.9323C103.254 65.9655 103.561 67.1108 103.561 68.3682C103.561 69.0311 103.439 69.6987 103.195 70.3713C102.952 71.0439 102.611 71.7213 102.172 72.4036C101.733 73.0859 101.217 73.778 100.622 74.4798C100.028 75.1718 99.3697 75.8834 98.6484 76.6144C97.9368 77.3357 97.1863 78.0765 96.3968 78.8368H103.663V82.4043H89.8758Z" fill="#2E2E2E"/>
<path d="M77.0429 96.8935C76.5422 96.8935 76.0593 96.816 75.5941 96.6609C75.1289 96.5014 74.7213 96.2754 74.3713 95.983C74.0257 95.6906 73.7798 95.3428 73.6336 94.9396L74.677 94.5475C74.7656 94.7956 74.9295 95.0127 75.1688 95.1988C75.4124 95.3805 75.6982 95.5222 76.0261 95.6241C76.3539 95.726 76.6929 95.777 77.0429 95.777C77.4416 95.777 77.8116 95.7127 78.1527 95.5843C78.4983 95.4513 78.7775 95.2675 78.9901 95.0327C79.2028 94.7978 79.3091 94.5231 79.3091 94.2086C79.3091 93.8851 79.1984 93.6215 78.9768 93.4177C78.7553 93.2095 78.4717 93.0455 78.1262 92.9259C77.7806 92.8019 77.4195 92.7066 77.0429 92.6401C76.4005 92.5338 75.8245 92.3832 75.315 92.1882C74.8099 91.9889 74.4089 91.7119 74.1121 91.3575C73.8196 91.003 73.6734 90.5356 73.6734 89.9552C73.6734 89.4147 73.8285 88.9428 74.1386 88.5396C74.4532 88.1365 74.8675 87.8241 75.3814 87.6026C75.8954 87.3811 76.4492 87.2703 77.0429 87.2703C77.5347 87.2703 78.011 87.3478 78.4717 87.5029C78.937 87.6535 79.3468 87.8751 79.7012 88.1675C80.0557 88.4599 80.3104 88.8166 80.4655 89.2375L79.4088 89.6229C79.3202 89.3704 79.1541 89.1533 78.9104 88.9716C78.6711 88.7855 78.3876 88.6438 78.0597 88.5463C77.7363 88.4444 77.3973 88.3934 77.0429 88.3934C76.6486 88.389 76.2808 88.4533 75.9397 88.5862C75.5985 88.7191 75.3216 88.903 75.1089 89.1378C74.8963 89.3726 74.7899 89.6451 74.7899 89.9552C74.7899 90.3274 74.8874 90.6132 75.0824 90.8125C75.2817 91.0075 75.552 91.1537 75.8932 91.2512C76.2343 91.3486 76.6176 91.435 77.0429 91.5103C77.6454 91.6123 78.2037 91.774 78.7176 91.9955C79.2316 92.2126 79.6436 92.5028 79.9538 92.8661C80.2683 93.2294 80.4256 93.6769 80.4256 94.2086C80.4256 94.7491 80.2683 95.221 79.9538 95.6241C79.6436 96.0273 79.2316 96.3397 78.7176 96.5612C78.2037 96.7827 77.6454 96.8935 77.0429 96.8935ZM88.6315 87.4165V88.533H85.5345V96.7207H84.418V88.533H81.3277V87.4165H88.6315ZM89.9658 96.7207V87.4165H95.6746V88.533H91.0823V91.1781H94.8438V92.2946H91.0823V95.6042H95.6746V96.7207H89.9658ZM97.2087 96.7207V87.4165H100.279C100.78 87.4165 101.229 87.5383 101.628 87.782C102.031 88.0257 102.35 88.3558 102.585 88.7723C102.824 89.1843 102.944 89.6451 102.944 90.1546C102.944 90.673 102.822 91.1404 102.579 91.5569C102.339 91.9689 102.016 92.2968 101.608 92.5405C101.205 92.7797 100.762 92.8993 100.279 92.8993H98.3252V96.7207H97.2087ZM98.3252 91.7828H100.179C100.481 91.7828 100.755 91.7097 101.003 91.5635C101.256 91.4129 101.455 91.2113 101.602 90.9587C101.752 90.7018 101.828 90.4138 101.828 90.0948C101.828 89.7713 101.752 89.4834 101.602 89.2308C101.455 88.9738 101.256 88.7723 101.003 88.626C100.755 88.4754 100.481 88.4001 100.179 88.4001H98.3252V91.7828Z" fill="#2E2E2E"/>
<defs>
<filter id="filter0_d_179_9728" x="31.5086" y="29.8398" width="108.992" height="111.651" filterUnits="userSpaceOnUse" color-interpolation-filters="sRGB">
<feFlood flood-opacity="0" result="BackgroundImageFix"/>
<feColorMatrix in="SourceAlpha" type="matrix" values="0 0 0 0 0 0 0 0 0 0 0 0 0 0 0 0 0 0 127 0" result="hardAlpha"/>
<feOffset dy="6.64586"/>
<feGaussianBlur stdDeviation="1.99376"/>
<feComposite in2="hardAlpha" operator="out"/>
<feColorMatrix type="matrix" values="0 0 0 0 0 0 0 0 0 0.315009 0 0 0 0 0.598828 0 0 0 1 0"/>
<feBlend mode="normal" in2="BackgroundImageFix" result="effect1_dropShadow_179_9728"/>
<feBlend mode="normal" in="SourceGraphic" in2="effect1_dropShadow_179_9728" result="shape"/>
</filter>
<linearGradient id="paint0_linear_179_9728" x1="86.0052" y1="0.597656" x2="142.163" y2="157.772" gradientUnits="userSpaceOnUse">
<stop stop-color="#0065C0"/>
<stop offset="1" stop-color="#A3DC2F"/>
</linearGradient>
<linearGradient id="paint1_linear_179_9728" x1="86.0046" y1="11.2305" x2="134.674" y2="147.448" gradientUnits="userSpaceOnUse">
<stop stop-color="#0065C0"/>
<stop offset="1" stop-color="#A3DC2F"/>
</linearGradient>
<linearGradient id="paint2_linear_179_9728" x1="86.0046" y1="29.8398" x2="121.571" y2="129.384" gradientUnits="userSpaceOnUse">
<stop stop-color="#0065C0"/>
<stop offset="1" stop-color="#A3DC2F"/>
</linearGradient>
<linearGradient id="paint3_linear_179_9728" x1="164.754" y1="73.0371" x2="169.667" y2="86.7899" gradientUnits="userSpaceOnUse">
<stop stop-color="#0065C0"/>
<stop offset="1" stop-color="#A3DC2F"/>
</linearGradient>
<linearGradient id="paint4_linear_179_9728" x1="7.25061" y1="73.0371" x2="12.1644" y2="86.7899" gradientUnits="userSpaceOnUse">
<stop stop-color="#0065C0"/>
<stop offset="1" stop-color="#A3DC2F"/>
</linearGradient>
</defs>
</svg>
