<svg width="172" height="161" viewBox="0 0 172 161" fill="none" xmlns="http://www.w3.org/2000/svg">
<circle cx="86.0853" cy="80.348" r="78.7534" fill="white" stroke="url(#paint0_linear_179_9793)" stroke-width="1.99376"/>
<circle cx="86.0847" cy="80.3474" r="68.1201" fill="#0065C0" stroke="url(#paint1_linear_179_9793)" stroke-width="1.99376"/>
<g filter="url(#filter0_d_179_9793)">
<circle cx="86.0847" cy="80.3484" r="50.5085" fill="white"/>
<circle cx="86.0847" cy="80.3484" r="49.5116" stroke="url(#paint2_linear_179_9793)" stroke-width="1.99376"/>
</g>
<circle cx="164.834" cy="80.0153" r="5.98127" fill="white" stroke="url(#paint3_linear_179_9793)" stroke-width="1.99376"/>
<circle cx="7.33069" cy="80.0153" r="5.98127" fill="white" stroke="url(#paint4_linear_179_9793)" stroke-width="1.99376"/>
<path d="M79.7696 82.7844C78.5804 82.7844 77.4985 82.5115 76.5237 81.9657C75.549 81.4101 74.7059 80.6449 73.9943 79.6702C73.2925 78.6955 72.7515 77.5697 72.3714 76.2928C71.9913 75.0061 71.8012 73.6318 71.8012 72.1697C71.8012 70.7076 71.9913 69.3381 72.3714 68.0612C72.7515 66.7746 73.2925 65.6439 73.9943 64.6692C74.7059 63.6944 75.549 62.9341 76.5237 62.3883C77.4985 61.8327 78.5804 61.5549 79.7696 61.5549C80.9587 61.5549 82.0407 61.8327 83.0154 62.3883C83.9901 62.9341 84.8235 63.6944 85.5156 64.6692C86.2174 65.6439 86.7584 66.7746 87.1385 68.0612C87.5284 69.3381 87.7233 70.7076 87.7233 72.1697C87.7233 73.6318 87.5284 75.0061 87.1385 76.2928C86.7584 77.5697 86.2174 78.6955 85.5156 79.6702C84.8235 80.6449 83.9901 81.4101 83.0154 81.9657C82.0407 82.5115 80.9587 82.7844 79.7696 82.7844ZM79.7696 79.2169C80.8125 79.2169 81.6752 78.8855 82.3575 78.2227C83.0398 77.5599 83.5466 76.6924 83.878 75.6202C84.2095 74.548 84.3752 73.3978 84.3752 72.1697C84.3752 70.8733 84.1997 69.6939 83.8488 68.6314C83.4979 67.5592 82.9813 66.7063 82.299 66.0728C81.6167 65.4392 80.7735 65.1224 79.7696 65.1224C78.98 65.1224 78.2929 65.3173 77.708 65.7072C77.1329 66.0874 76.6553 66.6089 76.2752 67.2717C75.895 67.9345 75.6124 68.6899 75.4272 69.5379C75.242 70.3762 75.1494 71.2534 75.1494 72.1697C75.1494 73.3881 75.3151 74.5383 75.6465 75.6202C75.9876 76.6924 76.4994 77.5599 77.1817 78.2227C77.8737 78.8855 78.7364 79.2169 79.7696 79.2169ZM90.2087 82.4043L99.9608 65.5025H89.1852V61.935H104.099V65.5025L94.3171 82.4043H90.2087Z" fill="#2E2E2E"/>
<path d="M76.623 96.8935C76.1223 96.8935 75.6394 96.816 75.1742 96.6609C74.709 96.5014 74.3013 96.2754 73.9513 95.983C73.6057 95.6906 73.3598 95.3428 73.2136 94.9396L74.257 94.5475C74.3457 94.7956 74.5096 95.0127 74.7488 95.1988C74.9925 95.3805 75.2783 95.5222 75.6061 95.6241C75.934 95.726 76.2729 95.777 76.623 95.777C77.0217 95.777 77.3917 95.7127 77.7328 95.5843C78.0784 95.4513 78.3575 95.2675 78.5702 95.0327C78.7829 94.7978 78.8892 94.5231 78.8892 94.2086C78.8892 93.8851 78.7784 93.6215 78.5569 93.4177C78.3354 93.2095 78.0518 93.0455 77.7062 92.9259C77.3607 92.8019 76.9996 92.7066 76.623 92.6401C75.9805 92.5338 75.4046 92.3832 74.895 92.1882C74.39 91.9889 73.989 91.7119 73.6921 91.3575C73.3997 91.003 73.2535 90.5356 73.2535 89.9552C73.2535 89.4147 73.4086 88.9428 73.7187 88.5396C74.0333 88.1365 74.4476 87.8241 74.9615 87.6026C75.4754 87.3811 76.0293 87.2703 76.623 87.2703C77.1148 87.2703 77.591 87.3478 78.0518 87.5029C78.517 87.6535 78.9269 87.8751 79.2813 88.1675C79.6358 88.4599 79.8905 88.8166 80.0456 89.2375L78.9889 89.6229C78.9003 89.3704 78.7341 89.1533 78.4905 88.9716C78.2512 88.7855 77.9676 88.6438 77.6398 88.5463C77.3163 88.4444 76.9774 88.3934 76.623 88.3934C76.2286 88.389 75.8609 88.4533 75.5198 88.5862C75.1786 88.7191 74.9017 88.903 74.689 89.1378C74.4764 89.3726 74.37 89.6451 74.37 89.9552C74.37 90.3274 74.4675 90.6132 74.6624 90.8125C74.8618 91.0075 75.1321 91.1537 75.4732 91.2512C75.8144 91.3486 76.1976 91.435 76.623 91.5103C77.2255 91.6123 77.7838 91.774 78.2977 91.9955C78.8117 92.2126 79.2237 92.5028 79.5339 92.8661C79.8484 93.2294 80.0057 93.6769 80.0057 94.2086C80.0057 94.7491 79.8484 95.221 79.5339 95.6241C79.2237 96.0273 78.8117 96.3397 78.2977 96.5612C77.7838 96.7827 77.2255 96.8935 76.623 96.8935ZM88.2116 87.4165V88.533H85.1146V96.7207H83.9981V88.533H80.9078V87.4165H88.2116ZM89.5458 96.7207V87.4165H95.2546V88.533H90.6623V91.1781H94.4239V92.2946H90.6623V95.6042H95.2546V96.7207H89.5458ZM96.7888 96.7207V87.4165H99.8592C100.36 87.4165 100.81 87.5383 101.208 87.782C101.611 88.0257 101.93 88.3558 102.165 88.7723C102.405 89.1843 102.524 89.6451 102.524 90.1546C102.524 90.673 102.402 91.1404 102.159 91.5569C101.919 91.9689 101.596 92.2968 101.188 92.5405C100.785 92.7797 100.342 92.8993 99.8592 92.8993H97.9053V96.7207H96.7888ZM97.9053 91.7828H99.7595C100.061 91.7828 100.335 91.7097 100.584 91.5635C100.836 91.4129 101.035 91.2113 101.182 90.9587C101.332 90.7018 101.408 90.4138 101.408 90.0948C101.408 89.7713 101.332 89.4834 101.182 89.2308C101.035 88.9738 100.836 88.7723 100.584 88.626C100.335 88.4754 100.061 88.4001 99.7595 88.4001H97.9053V91.7828Z" fill="#2E2E2E"/>
<defs>
<filter id="filter0_d_179_9793" x="31.5887" y="29.8398" width="108.992" height="111.651" filterUnits="userSpaceOnUse" color-interpolation-filters="sRGB">
<feFlood flood-opacity="0" result="BackgroundImageFix"/>
<feColorMatrix in="SourceAlpha" type="matrix" values="0 0 0 0 0 0 0 0 0 0 0 0 0 0 0 0 0 0 127 0" result="hardAlpha"/>
<feOffset dy="6.64586"/>
<feGaussianBlur stdDeviation="1.99376"/>
<feComposite in2="hardAlpha" operator="out"/>
<feColorMatrix type="matrix" values="0 0 0 0 0 0 0 0 0 0.315009 0 0 0 0 0.598828 0 0 0 1 0"/>
<feBlend mode="normal" in2="BackgroundImageFix" result="effect1_dropShadow_179_9793"/>
<feBlend mode="normal" in="SourceGraphic" in2="effect1_dropShadow_179_9793" result="shape"/>
</filter>
<linearGradient id="paint0_linear_179_9793" x1="86.0853" y1="0.597656" x2="142.243" y2="157.772" gradientUnits="userSpaceOnUse">
<stop stop-color="#0065C0"/>
<stop offset="1" stop-color="#A3DC2F"/>
</linearGradient>
<linearGradient id="paint1_linear_179_9793" x1="86.0847" y1="11.2305" x2="134.755" y2="147.448" gradientUnits="userSpaceOnUse">
<stop stop-color="#0065C0"/>
<stop offset="1" stop-color="#A3DC2F"/>
</linearGradient>
<linearGradient id="paint2_linear_179_9793" x1="86.0847" y1="29.8398" x2="121.651" y2="129.384" gradientUnits="userSpaceOnUse">
<stop stop-color="#0065C0"/>
<stop offset="1" stop-color="#A3DC2F"/>
</linearGradient>
<linearGradient id="paint3_linear_179_9793" x1="164.834" y1="73.0371" x2="169.747" y2="86.7899" gradientUnits="userSpaceOnUse">
<stop stop-color="#0065C0"/>
<stop offset="1" stop-color="#A3DC2F"/>
</linearGradient>
<linearGradient id="paint4_linear_179_9793" x1="7.33069" y1="73.0371" x2="12.2445" y2="86.7899" gradientUnits="userSpaceOnUse">
<stop stop-color="#0065C0"/>
<stop offset="1" stop-color="#A3DC2F"/>
</linearGradient>
</defs>
</svg>
