<svg width="173" height="161" viewBox="0 0 173 161" fill="none" xmlns="http://www.w3.org/2000/svg">
<circle cx="86.6595" cy="80.348" r="78.7534" fill="white" stroke="url(#paint0_linear_179_9780)" stroke-width="1.99376"/>
<circle cx="86.6589" cy="80.3474" r="68.1201" fill="#0065C0" stroke="url(#paint1_linear_179_9780)" stroke-width="1.99376"/>
<g filter="url(#filter0_d_179_9780)">
<circle cx="86.6589" cy="80.3484" r="50.5085" fill="white"/>
<circle cx="86.6589" cy="80.3484" r="49.5116" stroke="url(#paint2_linear_179_9780)" stroke-width="1.99376"/>
</g>
<circle cx="165.408" cy="80.0153" r="5.98127" fill="white" stroke="url(#paint3_linear_179_9780)" stroke-width="1.99376"/>
<circle cx="7.90491" cy="80.0153" r="5.98127" fill="white" stroke="url(#paint4_linear_179_9780)" stroke-width="1.99376"/>
<path d="M80.3581 82.7844C79.1689 82.7844 78.087 82.5115 77.1122 81.9657C76.1375 81.4101 75.2944 80.6449 74.5828 79.6702C73.881 78.6955 73.34 77.5697 72.9599 76.2928C72.5798 75.0061 72.3897 73.6318 72.3897 72.1697C72.3897 70.7076 72.5798 69.3381 72.9599 68.0612C73.34 66.7746 73.881 65.6439 74.5828 64.6692C75.2944 63.6944 76.1375 62.9341 77.1122 62.3883C78.087 61.8327 79.1689 61.5549 80.3581 61.5549C81.5472 61.5549 82.6292 61.8327 83.6039 62.3883C84.5786 62.9341 85.412 63.6944 86.1041 64.6692C86.8059 65.6439 87.3469 66.7746 87.727 68.0612C88.1169 69.3381 88.3118 70.7076 88.3118 72.1697C88.3118 73.6318 88.1169 75.0061 87.727 76.2928C87.3469 77.5697 86.8059 78.6955 86.1041 79.6702C85.412 80.6449 84.5786 81.4101 83.6039 81.9657C82.6292 82.5115 81.5472 82.7844 80.3581 82.7844ZM80.3581 79.2169C81.401 79.2169 82.2637 78.8855 82.946 78.2227C83.6283 77.5599 84.1351 76.6924 84.4665 75.6202C84.7979 74.548 84.9636 73.3978 84.9636 72.1697C84.9636 70.8733 84.7882 69.6939 84.4373 68.6314C84.0864 67.5592 83.5698 66.7063 82.8875 66.0728C82.2052 65.4392 81.362 65.1224 80.3581 65.1224C79.5685 65.1224 78.8814 65.3173 78.2965 65.7072C77.7214 66.0874 77.2438 66.6089 76.8637 67.2717C76.4835 67.9345 76.2009 68.6899 76.0157 69.5379C75.8305 70.3762 75.7379 71.2534 75.7379 72.1697C75.7379 73.3881 75.9036 74.5383 76.235 75.6202C76.5761 76.6924 77.0879 77.5599 77.7702 78.2227C78.4622 78.8855 79.3249 79.2169 80.3581 79.2169ZM97.1134 82.7844C95.8072 82.7844 94.6083 82.4579 93.5166 81.8048C92.4249 81.1518 91.5526 80.2794 90.8995 79.1877C90.2464 78.096 89.9199 76.8873 89.9199 75.5617C89.9199 74.8794 89.9979 74.2458 90.1538 73.661C90.3195 73.0762 90.573 72.4865 90.9141 71.8919L96.6455 61.935H100.783L96.9379 68.5876C97.7275 68.5291 98.4877 68.5973 99.2188 68.7922C99.9498 68.9872 100.627 69.2942 101.251 69.7134C101.875 70.1325 102.421 70.6394 102.889 71.2339C103.357 71.8285 103.717 72.4913 103.971 73.2224C104.234 73.9534 104.365 74.7332 104.365 75.5617C104.365 76.5559 104.175 77.4868 103.795 78.3543C103.425 79.2218 102.908 79.9918 102.245 80.6644C101.582 81.3272 100.812 81.8487 99.9352 82.2288C99.058 82.5992 98.1173 82.7844 97.1134 82.7844ZM97.1134 79.2169C97.8249 79.2169 98.4585 79.0464 99.0141 78.7052C99.5697 78.3543 100.003 77.9011 100.315 77.3455C100.637 76.7899 100.798 76.2002 100.798 75.5763C100.798 74.9038 100.637 74.2897 100.315 73.7341C99.9937 73.1785 99.5551 72.735 98.9995 72.4036C98.4536 72.0722 97.8347 71.9065 97.1426 71.9065C96.4311 71.9065 95.7975 72.0819 95.2419 72.4328C94.6961 72.774 94.2672 73.2224 93.9553 73.778C93.6434 74.3336 93.4874 74.933 93.4874 75.5763C93.4874 76.2684 93.658 76.8873 93.9991 77.4332C94.3403 77.979 94.7838 78.4128 95.3296 78.7345C95.8852 79.0561 96.4798 79.2169 97.1134 79.2169Z" fill="#2E2E2E"/>
<path d="M77.1972 96.8935C76.6965 96.8935 76.2136 96.816 75.7484 96.6609C75.2832 96.5014 74.8756 96.2754 74.5255 95.983C74.18 95.6906 73.9341 95.3428 73.7879 94.9396L74.8313 94.5475C74.9199 94.7956 75.0838 95.0127 75.3231 95.1988C75.5667 95.3805 75.8525 95.5222 76.1804 95.6241C76.5082 95.726 76.8472 95.777 77.1972 95.777C77.5959 95.777 77.9659 95.7127 78.307 95.5843C78.6526 95.4513 78.9318 95.2675 79.1444 95.0327C79.3571 94.7978 79.4634 94.5231 79.4634 94.2086C79.4634 93.8851 79.3527 93.6215 79.1311 93.4177C78.9096 93.2095 78.626 93.0455 78.2805 92.9259C77.9349 92.8019 77.5738 92.7066 77.1972 92.6401C76.5548 92.5338 75.9788 92.3832 75.4693 92.1882C74.9642 91.9889 74.5632 91.7119 74.2664 91.3575C73.9739 91.003 73.8277 90.5356 73.8277 89.9552C73.8277 89.4147 73.9828 88.9428 74.2929 88.5396C74.6075 88.1365 75.0218 87.8241 75.5357 87.6026C76.0497 87.3811 76.6035 87.2703 77.1972 87.2703C77.689 87.2703 78.1653 87.3478 78.626 87.5029C79.0913 87.6535 79.5011 87.8751 79.8555 88.1675C80.21 88.4599 80.4647 88.8166 80.6198 89.2375L79.5631 89.6229C79.4745 89.3704 79.3084 89.1533 79.0647 88.9716C78.8254 88.7855 78.5419 88.6438 78.214 88.5463C77.8906 88.4444 77.5516 88.3934 77.1972 88.3934C76.8029 88.389 76.4351 88.4533 76.094 88.5862C75.7528 88.7191 75.4759 88.903 75.2632 89.1378C75.0506 89.3726 74.9442 89.6451 74.9442 89.9552C74.9442 90.3274 75.0417 90.6132 75.2367 90.8125C75.436 91.0075 75.7063 91.1537 76.0475 91.2512C76.3886 91.3486 76.7718 91.435 77.1972 91.5103C77.7997 91.6123 78.358 91.774 78.8719 91.9955C79.3859 92.2126 79.7979 92.5028 80.1081 92.8661C80.4226 93.2294 80.5799 93.6769 80.5799 94.2086C80.5799 94.7491 80.4226 95.221 80.1081 95.6241C79.7979 96.0273 79.3859 96.3397 78.8719 96.5612C78.358 96.7827 77.7997 96.8935 77.1972 96.8935ZM88.7858 87.4165V88.533H85.6888V96.7207H84.5723V88.533H81.482V87.4165H88.7858ZM90.1201 96.7207V87.4165H95.8289V88.533H91.2366V91.1781H94.9981V92.2946H91.2366V95.6042H95.8289V96.7207H90.1201ZM97.363 96.7207V87.4165H100.433C100.934 87.4165 101.384 87.5383 101.783 87.782C102.186 88.0257 102.505 88.3558 102.74 88.7723C102.979 89.1843 103.098 89.6451 103.098 90.1546C103.098 90.673 102.977 91.1404 102.733 91.5569C102.494 91.9689 102.17 92.2968 101.763 92.5405C101.359 92.7797 100.916 92.8993 100.433 92.8993H98.4795V96.7207H97.363ZM98.4795 91.7828H100.334C100.635 91.7828 100.91 91.7097 101.158 91.5635C101.41 91.4129 101.61 91.2113 101.756 90.9587C101.907 90.7018 101.982 90.4138 101.982 90.0948C101.982 89.7713 101.907 89.4834 101.756 89.2308C101.61 88.9738 101.41 88.7723 101.158 88.626C100.91 88.4754 100.635 88.4001 100.334 88.4001H98.4795V91.7828Z" fill="#2E2E2E"/>
<defs>
<filter id="filter0_d_179_9780" x="32.1629" y="29.8398" width="108.992" height="111.651" filterUnits="userSpaceOnUse" color-interpolation-filters="sRGB">
<feFlood flood-opacity="0" result="BackgroundImageFix"/>
<feColorMatrix in="SourceAlpha" type="matrix" values="0 0 0 0 0 0 0 0 0 0 0 0 0 0 0 0 0 0 127 0" result="hardAlpha"/>
<feOffset dy="6.64586"/>
<feGaussianBlur stdDeviation="1.99376"/>
<feComposite in2="hardAlpha" operator="out"/>
<feColorMatrix type="matrix" values="0 0 0 0 0 0 0 0 0 0.315009 0 0 0 0 0.598828 0 0 0 1 0"/>
<feBlend mode="normal" in2="BackgroundImageFix" result="effect1_dropShadow_179_9780"/>
<feBlend mode="normal" in="SourceGraphic" in2="effect1_dropShadow_179_9780" result="shape"/>
</filter>
<linearGradient id="paint0_linear_179_9780" x1="86.6595" y1="0.597656" x2="142.817" y2="157.772" gradientUnits="userSpaceOnUse">
<stop stop-color="#0065C0"/>
<stop offset="1" stop-color="#A3DC2F"/>
</linearGradient>
<linearGradient id="paint1_linear_179_9780" x1="86.6589" y1="11.2305" x2="135.329" y2="147.448" gradientUnits="userSpaceOnUse">
<stop stop-color="#0065C0"/>
<stop offset="1" stop-color="#A3DC2F"/>
</linearGradient>
<linearGradient id="paint2_linear_179_9780" x1="86.6589" y1="29.8398" x2="122.225" y2="129.384" gradientUnits="userSpaceOnUse">
<stop stop-color="#0065C0"/>
<stop offset="1" stop-color="#A3DC2F"/>
</linearGradient>
<linearGradient id="paint3_linear_179_9780" x1="165.408" y1="73.0371" x2="170.322" y2="86.7899" gradientUnits="userSpaceOnUse">
<stop stop-color="#0065C0"/>
<stop offset="1" stop-color="#A3DC2F"/>
</linearGradient>
<linearGradient id="paint4_linear_179_9780" x1="7.90491" y1="73.0371" x2="12.8187" y2="86.7899" gradientUnits="userSpaceOnUse">
<stop stop-color="#0065C0"/>
<stop offset="1" stop-color="#A3DC2F"/>
</linearGradient>
</defs>
</svg>
