<svg width="172" height="161" viewBox="0 0 172 161" fill="none" xmlns="http://www.w3.org/2000/svg">
<circle cx="86.2503" cy="80.348" r="78.7534" fill="white" stroke="url(#paint0_linear_179_9767)" stroke-width="1.99376"/>
<circle cx="86.2497" cy="80.3474" r="68.1201" fill="#0065C0" stroke="url(#paint1_linear_179_9767)" stroke-width="1.99376"/>
<g filter="url(#filter0_d_179_9767)">
<circle cx="86.2497" cy="80.3484" r="50.5085" fill="white"/>
<circle cx="86.2497" cy="80.3484" r="49.5116" stroke="url(#paint2_linear_179_9767)" stroke-width="1.99376"/>
</g>
<circle cx="164.999" cy="80.0153" r="5.98127" fill="white" stroke="url(#paint3_linear_179_9767)" stroke-width="1.99376"/>
<circle cx="7.49573" cy="80.0153" r="5.98127" fill="white" stroke="url(#paint4_linear_179_9767)" stroke-width="1.99376"/>
<path d="M80.0777 82.7844C78.8885 82.7844 77.8065 82.5115 76.8318 81.9657C75.8571 81.4101 75.014 80.6449 74.3024 79.6702C73.6006 78.6955 73.0596 77.5697 72.6795 76.2928C72.2993 75.0061 72.1093 73.6318 72.1093 72.1697C72.1093 70.7076 72.2993 69.3381 72.6795 68.0612C73.0596 66.7746 73.6006 65.6439 74.3024 64.6692C75.014 63.6944 75.8571 62.9341 76.8318 62.3883C77.8065 61.8327 78.8885 61.5549 80.0777 61.5549C81.2668 61.5549 82.3488 61.8327 83.3235 62.3883C84.2982 62.9341 85.1316 63.6944 85.8237 64.6692C86.5255 65.6439 87.0664 66.7746 87.4466 68.0612C87.8365 69.3381 88.0314 70.7076 88.0314 72.1697C88.0314 73.6318 87.8365 75.0061 87.4466 76.2928C87.0664 77.5697 86.5255 78.6955 85.8237 79.6702C85.1316 80.6449 84.2982 81.4101 83.3235 81.9657C82.3488 82.5115 81.2668 82.7844 80.0777 82.7844ZM80.0777 79.2169C81.1206 79.2169 81.9832 78.8855 82.6656 78.2227C83.3479 77.5599 83.8547 76.6924 84.1861 75.6202C84.5175 74.548 84.6832 73.3978 84.6832 72.1697C84.6832 70.8733 84.5078 69.6939 84.1569 68.6314C83.806 67.5592 83.2894 66.7063 82.6071 66.0728C81.9248 65.4392 81.0816 65.1224 80.0777 65.1224C79.2881 65.1224 78.6009 65.3173 78.0161 65.7072C77.441 66.0874 76.9634 66.6089 76.5833 67.2717C76.2031 67.9345 75.9204 68.6899 75.7353 69.5379C75.5501 70.3762 75.4575 71.2534 75.4575 72.1697C75.4575 73.3881 75.6232 74.5383 75.9546 75.6202C76.2957 76.6924 76.8075 77.5599 77.4898 78.2227C78.1818 78.8855 79.0444 79.2169 80.0777 79.2169ZM96.9499 82.7844C95.6341 82.7844 94.4449 82.4677 93.3824 81.8341C92.32 81.1908 91.4768 80.3379 90.853 79.2754C90.2389 78.213 89.9319 77.0482 89.9319 75.781H93.4994C93.4994 76.4146 93.6554 76.9946 93.9673 77.5209C94.2792 78.0375 94.6934 78.4518 95.21 78.7637C95.7364 79.0659 96.3164 79.2169 96.9499 79.2169C97.5835 79.2169 98.1586 79.0659 98.6752 78.7637C99.1918 78.4518 99.6061 78.0375 99.918 77.5209C100.23 76.9946 100.386 76.4146 100.386 75.781C100.386 75.1475 100.249 74.5675 99.9765 74.0411C99.7133 73.505 99.2795 73.081 98.6752 72.7691C98.0806 72.4475 97.2911 72.2866 96.3066 72.2866H91.0431L93.207 61.935H103.266V65.5025H96.1019L95.444 68.7191L96.8915 68.7338C98.2756 68.7825 99.4988 69.1188 100.561 69.7426C101.624 70.3664 102.452 71.2047 103.047 72.2574C103.651 73.3004 103.953 74.4749 103.953 75.781C103.953 76.7363 103.773 77.6379 103.412 78.4859C103.052 79.3339 102.55 80.0796 101.906 80.7229C101.263 81.3662 100.517 81.8731 99.6694 82.2435C98.8312 82.6041 97.9247 82.7844 96.9499 82.7844Z" fill="#2E2E2E"/>
<path d="M77.288 96.8935C76.7873 96.8935 76.3044 96.816 75.8392 96.6609C75.374 96.5014 74.9664 96.2754 74.6164 95.983C74.2708 95.6906 74.0249 95.3428 73.8787 94.9396L74.9221 94.5475C75.0107 94.7956 75.1746 95.0127 75.4139 95.1988C75.6576 95.3805 75.9433 95.5222 76.2712 95.6241C76.5991 95.726 76.938 95.777 77.288 95.777C77.6868 95.777 78.0567 95.7127 78.3979 95.5843C78.7434 95.4513 79.0226 95.2675 79.2352 95.0327C79.4479 94.7978 79.5542 94.5231 79.5542 94.2086C79.5542 93.8851 79.4435 93.6215 79.2219 93.4177C79.0004 93.2095 78.7169 93.0455 78.3713 92.9259C78.0257 92.8019 77.6646 92.7066 77.288 92.6401C76.6456 92.5338 76.0696 92.3832 75.5601 92.1882C75.055 91.9889 74.654 91.7119 74.3572 91.3575C74.0648 91.003 73.9186 90.5356 73.9186 89.9552C73.9186 89.4147 74.0736 88.9428 74.3838 88.5396C74.6983 88.1365 75.1126 87.8241 75.6265 87.6026C76.1405 87.3811 76.6943 87.2703 77.288 87.2703C77.7798 87.2703 78.2561 87.3478 78.7169 87.5029C79.1821 87.6535 79.5919 87.8751 79.9463 88.1675C80.3008 88.4599 80.5556 88.8166 80.7106 89.2375L79.6539 89.6229C79.5653 89.3704 79.3992 89.1533 79.1555 88.9716C78.9162 88.7855 78.6327 88.6438 78.3048 88.5463C77.9814 88.4444 77.6424 88.3934 77.288 88.3934C76.8937 88.389 76.5259 88.4533 76.1848 88.5862C75.8436 88.7191 75.5667 88.903 75.3541 89.1378C75.1414 89.3726 75.0351 89.6451 75.0351 89.9552C75.0351 90.3274 75.1325 90.6132 75.3275 90.8125C75.5269 91.0075 75.7971 91.1537 76.1383 91.2512C76.4794 91.3486 76.8627 91.435 77.288 91.5103C77.8906 91.6123 78.4488 91.774 78.9628 91.9955C79.4767 92.2126 79.8888 92.5028 80.1989 92.8661C80.5135 93.2294 80.6707 93.6769 80.6707 94.2086C80.6707 94.7491 80.5135 95.221 80.1989 95.6241C79.8888 96.0273 79.4767 96.3397 78.9628 96.5612C78.4488 96.7827 77.8906 96.8935 77.288 96.8935ZM88.8766 87.4165V88.533H85.7796V96.7207H84.6631V88.533H81.5728V87.4165H88.8766ZM90.2109 96.7207V87.4165H95.9197V88.533H91.3274V91.1781H95.0889V92.2946H91.3274V95.6042H95.9197V96.7207H90.2109ZM97.4538 96.7207V87.4165H100.524C101.025 87.4165 101.475 87.5383 101.873 87.782C102.277 88.0257 102.596 88.3558 102.83 88.7723C103.07 89.1843 103.189 89.6451 103.189 90.1546C103.189 90.673 103.067 91.1404 102.824 91.5569C102.584 91.9689 102.261 92.2968 101.853 92.5405C101.45 92.7797 101.007 92.8993 100.524 92.8993H98.5703V96.7207H97.4538ZM98.5703 91.7828H100.425C100.726 91.7828 101 91.7097 101.249 91.5635C101.501 91.4129 101.701 91.2113 101.847 90.9587C101.997 90.7018 102.073 90.4138 102.073 90.0948C102.073 89.7713 101.997 89.4834 101.847 89.2308C101.701 88.9738 101.501 88.7723 101.249 88.626C101 88.4754 100.726 88.4001 100.425 88.4001H98.5703V91.7828Z" fill="#2E2E2E"/>
<defs>
<filter id="filter0_d_179_9767" x="31.7537" y="29.8398" width="108.992" height="111.651" filterUnits="userSpaceOnUse" color-interpolation-filters="sRGB">
<feFlood flood-opacity="0" result="BackgroundImageFix"/>
<feColorMatrix in="SourceAlpha" type="matrix" values="0 0 0 0 0 0 0 0 0 0 0 0 0 0 0 0 0 0 127 0" result="hardAlpha"/>
<feOffset dy="6.64586"/>
<feGaussianBlur stdDeviation="1.99376"/>
<feComposite in2="hardAlpha" operator="out"/>
<feColorMatrix type="matrix" values="0 0 0 0 0 0 0 0 0 0.315009 0 0 0 0 0.598828 0 0 0 1 0"/>
<feBlend mode="normal" in2="BackgroundImageFix" result="effect1_dropShadow_179_9767"/>
<feBlend mode="normal" in="SourceGraphic" in2="effect1_dropShadow_179_9767" result="shape"/>
</filter>
<linearGradient id="paint0_linear_179_9767" x1="86.2503" y1="0.597656" x2="142.408" y2="157.772" gradientUnits="userSpaceOnUse">
<stop stop-color="#0065C0"/>
<stop offset="1" stop-color="#A3DC2F"/>
</linearGradient>
<linearGradient id="paint1_linear_179_9767" x1="86.2497" y1="11.2305" x2="134.92" y2="147.448" gradientUnits="userSpaceOnUse">
<stop stop-color="#0065C0"/>
<stop offset="1" stop-color="#A3DC2F"/>
</linearGradient>
<linearGradient id="paint2_linear_179_9767" x1="86.2497" y1="29.8398" x2="121.816" y2="129.384" gradientUnits="userSpaceOnUse">
<stop stop-color="#0065C0"/>
<stop offset="1" stop-color="#A3DC2F"/>
</linearGradient>
<linearGradient id="paint3_linear_179_9767" x1="164.999" y1="73.0371" x2="169.912" y2="86.7899" gradientUnits="userSpaceOnUse">
<stop stop-color="#0065C0"/>
<stop offset="1" stop-color="#A3DC2F"/>
</linearGradient>
<linearGradient id="paint4_linear_179_9767" x1="7.49573" y1="73.0371" x2="12.4095" y2="86.7899" gradientUnits="userSpaceOnUse">
<stop stop-color="#0065C0"/>
<stop offset="1" stop-color="#A3DC2F"/>
</linearGradient>
</defs>
</svg>
