<svg width="57" height="58" viewBox="0 0 57 58" fill="none" xmlns="http://www.w3.org/2000/svg">
<circle cx="28.2927" cy="29.1111" r="27.6916" fill="white" stroke="#E3E3E3" stroke-width="1.00697"/>
<path d="M40.499 36.502C39.6089 36.5066 38.7365 36.7514 37.974 37.2107L33.2078 32.4432C33.8869 31.424 34.2492 30.2267 34.2492 29.002C34.2492 27.7772 33.8869 26.5799 33.2078 25.5607L36.3915 22.377C37.1969 22.7649 38.1136 22.8552 38.9792 22.632C39.8449 22.4088 40.6035 21.8864 41.1209 21.1573C41.6382 20.4283 41.8808 19.5397 41.8057 18.6489C41.7306 17.7581 41.3426 16.9226 40.7105 16.2905C40.0783 15.6584 39.2429 15.2704 38.3521 15.1953C37.4613 15.1202 36.5727 15.3628 35.8437 15.8801C35.1146 16.3974 34.5922 17.1561 34.369 18.0217C34.1457 18.8874 34.2361 19.8041 34.624 20.6095L31.4403 23.7932C30.4211 23.1141 29.2237 22.7518 27.999 22.7518C26.7743 22.7518 25.577 23.1141 24.5578 23.7932L19.7903 19.0257C20.2493 18.2636 20.4942 17.3917 20.499 16.502C20.499 15.513 20.2058 14.5464 19.6564 13.7241C19.107 12.9019 18.3261 12.261 17.4124 11.8826C16.4988 11.5041 15.4935 11.4051 14.5236 11.598C13.5537 11.791 12.6628 12.2672 11.9635 12.9664C11.2642 13.6657 10.788 14.5566 10.5951 15.5265C10.4022 16.4964 10.5012 17.5017 10.8796 18.4154C11.2581 19.329 11.8989 20.1099 12.7212 20.6593C13.5434 21.2087 14.5101 21.502 15.499 21.502C16.3892 21.4973 17.2615 21.2525 18.024 20.7932L22.7903 25.5607C22.1112 26.5799 21.7488 27.7772 21.7488 29.002C21.7488 30.2267 22.1112 31.424 22.7903 32.4432L18.0228 37.2107C17.2606 36.7517 16.3887 36.5069 15.499 36.502C14.5101 36.502 13.5434 36.7952 12.7212 37.3446C11.8989 37.894 11.2581 38.6749 10.8796 39.5885C10.5012 40.5022 10.4022 41.5075 10.5951 42.4774C10.788 43.4473 11.2642 44.3382 11.9635 45.0375C12.6628 45.7368 13.5537 46.213 14.5236 46.4059C15.4935 46.5988 16.4988 46.4998 17.4124 46.1214C18.3261 45.7429 19.107 45.1021 19.6564 44.2798C20.2058 43.4576 20.499 42.4909 20.499 41.502C20.4944 40.6118 20.2495 39.7395 19.7903 38.977L24.5578 34.2107C25.2226 34.6538 25.9666 34.9645 26.749 35.1257V39.232C25.915 39.5268 25.2121 40.107 24.7645 40.8701C24.3169 41.6331 24.1534 42.5298 24.303 43.4016C24.4526 44.2735 24.9056 45.0644 25.582 45.6346C26.2583 46.2048 27.1144 46.5175 27.999 46.5175C28.8836 46.5175 29.7398 46.2048 30.4161 45.6346C31.0924 45.0644 31.5454 44.2735 31.695 43.4016C31.8446 42.5298 31.6812 41.6331 31.2336 40.8701C30.786 40.107 30.083 39.5268 29.249 39.232V35.1257C30.0315 34.9645 30.7755 34.6538 31.4403 34.2107L36.2078 38.9782C35.7487 39.7404 35.5039 40.6123 35.499 41.502C35.499 42.4909 35.7923 43.4576 36.3417 44.2798C36.8911 45.1021 37.672 45.7429 38.5856 46.1214C39.4992 46.4998 40.5046 46.5988 41.4745 46.4059C42.4444 46.213 43.3353 45.7368 44.0346 45.0375C44.7338 44.3382 45.21 43.4473 45.403 42.4774C45.5959 41.5075 45.4969 40.5022 45.1184 39.5885C44.74 38.6749 44.0991 37.894 43.2769 37.3446C42.4546 36.7952 41.4879 36.502 40.499 36.502ZM27.999 25.252C28.7407 25.252 29.4657 25.4719 30.0824 25.8839C30.6991 26.296 31.1798 26.8817 31.4636 27.5669C31.7474 28.2521 31.8217 29.0061 31.677 29.7335C31.5323 30.461 31.1751 31.1292 30.6507 31.6536C30.1262 32.1781 29.458 32.5352 28.7306 32.6799C28.0032 32.8246 27.2492 32.7503 26.564 32.4665C25.8787 32.1827 25.2931 31.702 24.881 31.0853C24.469 30.4687 24.249 29.7436 24.249 29.002C24.25 28.0077 24.6454 27.0545 25.3485 26.3514C26.0515 25.6484 27.0048 25.253 27.999 25.252ZM12.999 16.502C12.999 16.0075 13.1456 15.5242 13.4204 15.113C13.6951 14.7019 14.0855 14.3815 14.5423 14.1923C14.9991 14.003 15.5018 13.9535 15.9868 14.05C16.4717 14.1465 16.9172 14.3846 17.2668 14.7342C17.6164 15.0838 17.8545 15.5293 17.951 16.0142C18.0475 16.4992 17.9979 17.0018 17.8087 17.4587C17.6195 17.9155 17.2991 18.3059 16.888 18.5806C16.4768 18.8553 15.9935 19.002 15.499 19.002C14.8362 19.0013 14.2007 18.7377 13.732 18.269C13.2633 17.8003 12.9997 17.1648 12.999 16.502ZM15.499 44.002C15.0046 44.002 14.5212 43.8553 14.1101 43.5806C13.699 43.3059 13.3785 42.9155 13.1893 42.4587C13.0001 42.0019 12.9506 41.4992 13.0471 41.0142C13.1435 40.5293 13.3816 40.0838 13.7313 39.7342C14.0809 39.3846 14.5263 39.1465 15.0113 39.05C15.4963 38.9535 15.9989 39.003 16.4557 39.1923C16.9126 39.3815 17.303 39.7019 17.5777 40.113C17.8524 40.5242 17.999 41.0075 17.999 41.502C17.9984 42.1648 17.7348 42.8003 17.2661 43.269C16.7974 43.7377 16.1619 44.0013 15.499 44.002ZM40.499 44.002C40.0046 44.002 39.5212 43.8553 39.1101 43.5806C38.699 43.3059 38.3786 42.9155 38.1893 42.4587C38.0001 42.0019 37.9506 41.4992 38.0471 41.0142C38.1435 40.5293 38.3816 40.0838 38.7313 39.7342C39.0809 39.3846 39.5264 39.1465 40.0113 39.05C40.4963 38.9535 40.9989 39.003 41.4557 39.1923C41.9126 39.3815 42.303 39.7019 42.5777 40.113C42.8524 40.5242 42.999 41.0075 42.999 41.502C42.998 42.1647 42.7343 42.8 42.2657 43.2686C41.7971 43.7373 41.1618 44.001 40.499 44.002Z" fill="#0065C0"/>
</svg>
