<svg width="57" height="58" viewBox="0 0 57 58" fill="none" xmlns="http://www.w3.org/2000/svg">
<circle cx="28.3347" cy="29.1111" r="27.6951" fill="white" stroke="#E3E3E3"/>
<path d="M41 27C36.025 27 32 31.025 32 36C32 40.975 36.025 45 41 45C45.975 45 50 40.975 50 36C50 31.025 45.975 27 41 27ZM45 36.3937C45 36.725 44.725 37 44.3937 37H40.6063C40.275 37 40 36.725 40 36.3937V31.6063C40 31.275 40.275 31 40.6063 31H41.3937C41.725 31 42 31.275 42 31.6063V35H44.3937C44.725 35 45 35.275 45 35.6063V36.3937ZM30 36C30 34.2625 30.4188 32.6187 31.1375 31.1562C30.6375 31.0625 30.125 31 29.6 31H28.5562C27.1687 31.6375 25.625 32 24 32C22.375 32 20.8375 31.6375 19.4438 31H18.4C13.7625 31 10 34.7625 10 39.4V42C10 43.6562 11.3438 45 13 45H34.6938C31.8625 43.0063 30 39.7188 30 36ZM24 29C28.4188 29 32 25.4187 32 21C32 16.5813 28.4188 13 24 13C19.5813 13 16 16.5813 16 21C16 25.4187 19.5813 29 24 29Z" fill="#0065C0"/>
</svg>
