<svg width="57" height="58" viewBox="0 0 57 58" fill="none" xmlns="http://www.w3.org/2000/svg">
<circle cx="28.8142" cy="29.1111" r="27.6916" fill="white" stroke="#E3E3E3" stroke-width="1.00697"/>
<path d="M29 7C16.8494 7 7 16.8494 7 29C7 41.1506 16.8494 51 29 51C41.1506 51 51 41.1506 51 29C51 16.8494 41.1506 7 29 7ZM36.2999 38.7226C35.954 39.0668 35.5911 39.4278 35.2966 39.7232C35.0314 39.9894 34.8442 40.3176 34.7493 40.6733C34.6153 41.1754 34.5071 41.6828 34.3261 42.1698L32.7835 46.3259C31.5628 46.592 30.2996 46.7419 29 46.7419V44.3131C29.1499 43.1935 28.3223 41.0965 26.9925 39.7667C26.4602 39.2344 26.1613 38.5123 26.1613 37.7592V34.9196C26.1613 33.887 25.6051 32.9378 24.7011 32.4384C23.4264 31.7331 21.6131 30.7476 20.3712 30.1222C19.3528 29.6094 18.4107 28.9565 17.5635 28.1927L17.4926 28.1289C16.8867 27.582 16.3489 26.9643 15.8905 26.289C15.0584 25.0675 13.7029 23.0582 12.822 21.7524C14.6379 17.7161 17.9104 14.4747 21.9769 12.7138L24.1068 13.7792C25.0506 14.2511 26.1613 13.5654 26.1613 12.5098V11.5073C26.8701 11.3929 27.5913 11.3202 28.3249 11.2927L30.8354 13.8031C31.3898 14.3576 31.3898 15.2562 30.8354 15.8106L30.4194 16.2258L29.5021 17.1431C29.2253 17.4198 29.2253 17.8696 29.5021 18.1464L29.9181 18.5624C30.1949 18.8392 30.1949 19.289 29.9181 19.5657L29.2085 20.2754C29.0752 20.4084 28.8946 20.4831 28.7064 20.483H27.9089C27.7244 20.483 27.5469 20.5548 27.4139 20.6844L26.5339 21.5404C26.426 21.6454 26.3543 21.782 26.3291 21.9305C26.3039 22.0789 26.3265 22.2315 26.3937 22.3663L27.7767 25.1331C28.0127 25.6051 27.6694 26.1604 27.1424 26.1604H26.6421C26.4709 26.1604 26.3059 26.0983 26.1773 25.9865L25.354 25.2715C25.1677 25.1099 24.9426 24.9996 24.7007 24.9514C24.4589 24.9031 24.2086 24.9187 23.9746 24.9965L21.2095 25.9182C20.9984 25.9886 20.8148 26.1237 20.6847 26.3042C20.5547 26.4848 20.4847 26.7017 20.4848 26.9242C20.4848 27.326 20.7119 27.6924 21.0711 27.8725L22.054 28.364C22.8888 28.7818 23.8096 28.9991 24.7428 28.9991C25.676 28.9991 26.7468 31.42 27.5815 31.8378H33.5029C34.256 31.8378 34.9773 32.1368 35.5104 32.669L36.7248 33.8835C37.2322 34.391 37.5171 35.0793 37.517 35.7969C37.5168 36.3407 37.4092 36.8791 37.2004 37.3812C36.9915 37.8833 36.6855 38.3391 36.2999 38.7226ZM43.9919 30.619C43.4783 30.4903 43.0303 30.1754 42.7367 29.7345L41.1417 27.342C40.9083 26.9925 40.7838 26.5816 40.7838 26.1613C40.7838 25.741 40.9083 25.3301 41.1417 24.9806L42.8795 22.3743C43.0853 22.0665 43.3674 21.8163 43.6992 21.6513L44.8506 21.0756C46.05 23.4636 46.7419 26.1498 46.7419 29C46.7419 29.7691 46.6763 30.5223 46.5805 31.2656L43.9919 30.619Z" fill="#0065C0"/>
</svg>
