<svg width="57" height="58" viewBox="0 0 57 58" fill="none" xmlns="http://www.w3.org/2000/svg">
<circle cx="28.7722" cy="29.1111" r="27.6916" fill="white" stroke="#E3E3E3" stroke-width="1.00697"/>
<g clip-path="url(#clip0_217_2044)">
<path d="M37.0236 35.1184C36.6717 35.5222 36.2787 35.8878 35.8125 36.1582V37.9056C40.8795 38.617 44.3438 40.0422 44.3438 41.6875C44.3438 44.0435 37.2506 45.9531 28.5 45.9531C19.7494 45.9531 12.6562 44.0435 12.6562 41.6875C12.6562 40.0422 16.1205 38.6178 21.1875 37.9056V36.1582C20.7213 35.8878 20.3283 35.5222 19.9764 35.1184C13.4842 36.3052 9 38.7968 9 41.6875C9 45.7261 17.7308 49 28.5 49C39.2692 49 48 45.7261 48 41.6875C48 38.7968 43.5158 36.3052 37.0236 35.1184ZM28.5 19.75C31.1927 19.75 33.375 17.5677 33.375 14.875C33.375 12.1823 31.1927 10 28.5 10C25.8073 10 23.625 12.1823 23.625 14.875C23.625 17.5677 25.8073 19.75 28.5 19.75ZM23.625 34.375V41.6875C23.625 43.0335 24.7165 44.125 26.0625 44.125H30.9375C32.2835 44.125 33.375 43.0335 33.375 41.6875V34.375C34.721 34.375 35.8125 33.2835 35.8125 31.9375V24.625C35.8125 22.6057 34.1756 20.9688 32.1562 20.9688H31.2574C30.4142 21.3519 29.4857 21.5781 28.5 21.5781C27.5143 21.5781 26.5858 21.3519 25.7426 20.9688H24.8438C22.8244 20.9688 21.1875 22.6057 21.1875 24.625V31.9375C21.1875 33.2835 22.279 34.375 23.625 34.375Z" fill="#0065C0"/>
</g>
<defs>
<clipPath id="clip0_217_2044">
<rect width="39" height="39" fill="white" transform="translate(9 10)"/>
</clipPath>
</defs>
</svg>
