<svg width="1758" height="1081" viewBox="0 0 1758 1081" fill="none" xmlns="http://www.w3.org/2000/svg">
<g style="mix-blend-mode:overlay">
<path opacity="0.0144928" d="M1867.03 876.044C1877.02 878.344 1887.32 873.756 1892.3 864.794L2050.33 580.109C2053.27 574.809 2054.01 568.561 2052.37 562.725L1926.31 113.995C1925.02 109.405 1922.34 105.33 1918.63 102.332L1601.23 -154.372C1594.51 -159.808 1585.31 -161.016 1577.41 -157.501L1318.02 -42.009C1310.12 -38.4933 1304.86 -30.8469 1304.4 -22.2153L1282.79 385.428C1282.54 390.189 1283.77 394.91 1286.32 398.939L1535.44 792.874C1538.68 797.998 1543.82 801.635 1549.72 802.995L1867.03 876.044Z" stroke="url(#paint0_linear_217_1848)" stroke-width="4"/>
<path opacity="0.0289855" d="M1817.23 887.842C1827.07 890.638 1837.57 886.608 1843 877.95L2014.92 604.18C2018.15 599.039 2019.21 592.83 2017.88 586.907L1916.64 136.324C1915.59 131.659 1913.12 127.436 1909.56 124.244L1608.27 -145.963C1601.85 -151.727 1592.73 -153.406 1584.68 -150.313L1321.17 -49.1607C1313.11 -46.0671 1307.46 -38.721 1306.54 -30.1374L1263.45 372.263C1262.94 377.017 1263.92 381.812 1266.26 385.981L1492.53 788.571C1495.5 793.863 1500.45 797.765 1506.29 799.426L1817.23 887.842Z" stroke="url(#paint1_linear_217_1848)" stroke-width="4"/>
<path opacity="0.0434783" d="M1767.42 898.042C1777.07 901.324 1787.73 897.86 1793.61 889.531L1978.7 627.342C1982.21 622.375 1983.61 616.222 1982.59 610.227L1906.01 159.149C1905.21 154.421 1902.94 150.062 1899.54 146.681L1614.91 -136.052C1608.8 -142.128 1599.8 -144.273 1591.6 -141.609L1324.76 -54.9082C1316.56 -52.2441 1310.54 -45.2182 1309.16 -36.7077L1245.08 359.328C1244.32 364.063 1245.05 368.919 1247.18 373.216L1450.36 783.159C1453.06 788.606 1457.81 792.763 1463.56 794.721L1767.42 898.042Z" stroke="url(#paint2_linear_217_1848)" stroke-width="4"/>
<path opacity="0.057971" d="M1717.67 906.656C1727.12 910.413 1737.91 907.521 1744.22 899.544L1941.74 649.557C1945.52 644.78 1947.25 638.7 1946.55 632.652L1894.39 182.413C1893.84 177.634 1891.8 173.149 1888.57 169.589L1621.08 -124.677C1615.28 -131.048 1606.42 -133.651 1598.1 -131.423L1328.72 -59.2427C1320.41 -57.0143 1314.03 -50.3278 1312.2 -41.9148L1227.68 346.673C1226.66 351.374 1227.14 356.277 1229.05 360.693L1409 776.686C1411.42 782.275 1415.95 786.676 1421.61 788.926L1717.67 906.656Z" stroke="url(#paint3_linear_217_1848)" stroke-width="4"/>
<path opacity="0.0724638" d="M1668.08 913.707C1677.3 917.926 1688.19 915.61 1694.9 908.006L1904.1 670.799C1908.13 666.225 1910.18 660.237 1909.8 654.15L1881.78 206.061C1881.48 201.245 1879.67 196.645 1876.61 192.913L1626.68 -111.875C1621.23 -118.524 1612.52 -121.576 1604.11 -119.789L1332.98 -62.1568C1324.57 -60.3692 1317.85 -54.04 1315.58 -45.7488L1211.22 334.346C1209.94 339 1210.16 343.938 1211.85 348.461L1368.5 769.207C1370.63 774.922 1374.94 779.558 1380.49 782.096L1668.08 913.707Z" stroke="url(#paint4_linear_217_1848)" stroke-width="4"/>
<path opacity="0.0869565" d="M1618.73 919.211C1627.69 923.878 1638.66 922.142 1645.75 914.931L1865.82 691.033C1870.1 686.677 1872.48 680.798 1872.42 674.69L1868.16 230.032C1868.11 225.19 1866.54 220.487 1863.66 216.592L1631.65 -97.6958C1626.55 -104.604 1618.03 -108.096 1609.55 -106.753L1337.43 -63.6536C1328.95 -62.3104 1321.93 -56.3555 1319.21 -48.2101L1195.68 322.391C1194.15 326.984 1194.1 331.943 1195.55 336.562L1328.91 760.773C1330.74 766.6 1334.82 771.459 1340.23 774.278L1618.73 919.211Z" stroke="url(#paint5_linear_217_1848)" stroke-width="4"/>
<path opacity="0.101449" d="M1569.7 923.202C1578.39 928.303 1589.4 927.146 1596.84 920.349L1826.98 710.242C1831.49 706.118 1834.18 700.364 1834.45 694.252L1853.51 254.272C1853.72 249.42 1852.39 244.625 1849.71 240.575L1635.92 -82.1806C1631.19 -89.3286 1622.87 -93.2498 1614.35 -92.3536L1342.02 -63.7312C1333.49 -62.835 1326.17 -57.2702 1323.03 -49.294L1181.02 310.857C1179.24 315.376 1178.93 320.343 1180.15 325.045L1290.27 751.447C1291.8 757.37 1295.63 762.44 1300.91 765.535L1569.7 923.202Z" stroke="url(#paint6_linear_217_1848)" stroke-width="4"/>
<path opacity="0.115942" d="M1521.07 925.711C1529.47 931.229 1540.48 930.652 1548.26 924.286L1787.62 728.403C1792.36 724.523 1795.36 718.911 1795.95 712.813L1837.83 278.722C1838.3 273.872 1837.22 268.998 1834.74 264.804L1639.43 -65.3834C1635.07 -72.7524 1626.98 -77.0903 1618.43 -76.6423L1346.66 -62.3996C1338.11 -61.9515 1330.52 -56.7916 1326.95 -49.0074L1167.23 299.786C1165.2 304.217 1164.63 309.177 1165.6 313.953L1252.63 741.287C1253.85 747.29 1257.42 752.558 1262.54 755.921L1521.07 925.711Z" stroke="url(#paint7_linear_217_1848)" stroke-width="4"/>
<path opacity="0.130435" d="M1472.92 926.773C1481.01 932.691 1491.99 932.691 1500.08 926.773L1747.81 745.498C1752.76 741.874 1756.06 736.421 1756.98 730.353L1821.12 303.324C1821.85 298.489 1821.01 293.548 1818.74 289.219L1642.09 -47.3592C1638.12 -54.929 1630.28 -59.6707 1621.73 -59.6707L1351.27 -59.6707C1342.72 -59.6707 1334.88 -54.929 1330.91 -47.3591L1154.26 289.219C1151.99 293.548 1151.15 298.489 1151.88 303.324L1216.02 730.353C1216.94 736.421 1220.24 741.874 1225.19 745.498L1472.92 926.773Z" stroke="url(#paint8_linear_217_1848)" stroke-width="4"/>
<path opacity="0.144928" d="M1425.32 926.431C1433.08 932.731 1444.01 933.304 1452.38 927.849L1707.62 761.515C1712.76 758.159 1716.36 752.882 1717.59 746.861L1803.37 328.022C1804.35 323.216 1803.78 318.221 1801.72 313.767L1643.87 -28.1628C1640.29 -35.9131 1632.71 -41.0443 1624.19 -41.491L1355.78 -55.5575C1347.26 -56.0043 1339.19 -51.6931 1334.82 -44.3593L1142.09 279.198C1139.58 283.412 1138.48 288.319 1138.96 293.202L1180.49 718.712C1181.08 724.83 1184.11 730.453 1188.88 734.329L1425.32 926.431Z" stroke="url(#paint9_linear_217_1848)" stroke-width="4"/>
<path opacity="0.15942" d="M1378.35 924.727C1385.76 931.391 1396.61 932.531 1405.24 927.553L1667.09 776.443C1672.42 773.366 1676.3 768.28 1677.85 762.322L1784.58 352.758C1785.83 347.994 1785.51 342.958 1783.67 338.39L1644.69 -7.85771C1641.51 -15.7675 1634.22 -21.273 1625.75 -22.1639L1360.12 -50.0824C1351.64 -50.9734 1343.37 -47.1036 1338.62 -40.0268L1130.68 269.758C1127.94 273.845 1126.58 278.704 1126.8 283.622L1146.05 706.428C1146.33 712.578 1149.06 718.359 1153.64 722.477L1378.35 924.727Z" stroke="url(#paint10_linear_217_1848)" stroke-width="4"/>
<path opacity="0.173913" d="M1332.08 921.714C1339.12 928.72 1349.85 930.421 1358.71 925.931L1626.3 790.278C1631.8 787.489 1635.95 782.609 1637.82 776.733L1764.77 377.476C1766.27 372.769 1766.21 367.704 1764.6 363.033L1644.5 13.4965C1641.74 5.44823 1634.76 -0.415288 1626.35 -1.74655L1364.21 -43.2657C1355.8 -44.597 1347.35 -41.1784 1342.23 -34.3786L1120 260.938C1117.03 264.885 1115.41 269.683 1115.38 274.623L1112.74 693.569C1112.7 699.735 1115.14 705.659 1119.51 710.011L1332.08 921.714Z" stroke="url(#paint11_linear_217_1848)" stroke-width="4"/>
<path opacity="0.188406" d="M1286.57 917.438C1293.22 924.768 1303.81 927.02 1312.87 923.029L1585.3 803.012C1590.95 800.522 1595.36 795.863 1597.54 790.084L1743.93 402.119C1745.68 397.481 1745.89 392.402 1744.52 387.638L1643.27 35.8306C1640.92 27.6654 1634.26 21.4609 1625.95 19.6944L1367.98 -35.138C1359.67 -36.9045 1351.06 -33.9454 1345.59 -27.4419L1110 252.768C1106.81 256.562 1104.93 261.285 1104.65 266.234L1080.58 680.201C1080.22 686.367 1082.36 692.418 1086.51 696.992L1286.57 917.438Z" stroke="url(#paint12_linear_217_1848)" stroke-width="4"/>
<path opacity="0.202899" d="M1241.88 911.956C1248.13 919.587 1258.55 922.38 1267.78 918.898L1544.15 814.648C1549.94 812.465 1554.6 808.041 1557.09 802.376L1722.09 426.631C1724.09 422.076 1724.56 416.995 1723.42 412.151L1640.93 59.0776C1639 50.8172 1632.68 44.2898 1624.49 42.0943L1371.37 -25.7294C1363.17 -27.9249 1354.43 -25.432 1348.63 -19.2433L1100.65 245.28C1097.25 248.91 1095.12 253.544 1094.57 258.489L1049.59 666.392C1048.91 672.541 1050.74 678.705 1054.66 683.491L1241.88 911.956Z" stroke="url(#paint13_linear_217_1848)" stroke-width="4"/>
<path opacity="0.217391" d="M1198.07 905.326C1203.91 913.236 1214.13 916.558 1223.51 913.592L1502.91 825.188C1508.82 823.318 1513.73 819.143 1516.52 813.609L1699.24 450.958C1701.49 446.499 1702.23 441.43 1701.34 436.517L1637.45 83.1672C1635.95 74.8334 1629.98 68.0018 1621.93 65.3847L1374.3 -15.0747C1366.25 -17.6917 1357.4 -15.6708 1351.29 -9.81412L1091.91 238.503C1088.31 241.956 1085.92 246.488 1085.12 251.416L1019.79 652.211C1018.79 658.328 1020.3 664.588 1023.98 669.573L1198.07 905.326Z" stroke="url(#paint14_linear_217_1848)" stroke-width="4"/>
<path opacity="0.231884" d="M1155.19 897.608C1160.61 905.775 1170.61 909.613 1180.1 907.168L1461.65 834.638C1467.66 833.089 1472.79 829.176 1475.88 823.787L1675.42 475.048C1677.91 470.698 1678.91 465.654 1678.27 460.684L1632.8 108.028C1631.72 99.6426 1626.13 92.5265 1618.23 89.4966L1376.72 -3.21143C1368.83 -6.24132 1359.91 -4.69644 1353.49 0.811645L1083.73 232.463C1079.93 235.728 1077.3 240.145 1076.24 245.043L991.176 637.728C989.862 643.795 991.056 650.136 994.487 655.31L1155.19 897.608Z" stroke="url(#paint15_linear_217_1848)" stroke-width="4"/>
<path opacity="0.246377" d="M1113.3 888.866C1118.28 897.267 1128.03 901.605 1137.61 899.686L1420.42 843.009C1426.52 841.787 1431.86 838.148 1435.23 832.921L1650.64 498.848C1653.37 494.621 1654.63 489.616 1654.24 484.601L1626.94 133.588C1626.29 125.173 1621.08 117.793 1613.37 114.36L1378.57 9.82085C1370.86 6.38789 1361.89 7.45396 1355.19 12.5982L1076.08 227.185C1072.09 230.251 1069.21 234.54 1067.9 239.394L963.769 623.014C962.14 629.015 963.011 635.421 966.183 640.77L1113.3 888.866Z" stroke="url(#paint16_linear_217_1848)" stroke-width="4"/>
<path opacity="0.26087" d="M1072.45 879.165C1076.98 887.776 1086.45 892.6 1096.08 891.208L1379.27 850.314C1385.44 849.423 1390.98 846.07 1394.63 841.02L1624.92 522.309C1627.88 518.216 1629.41 513.264 1629.27 508.216L1619.85 159.772C1619.62 151.35 1614.8 143.726 1607.3 139.901L1379.78 23.9773C1372.28 20.1522 1363.28 20.738 1356.33 25.5043L1068.89 222.69C1064.73 225.547 1061.62 229.694 1060.05 234.492L937.569 608.136C935.629 614.056 936.173 620.51 939.076 626.022L1072.45 879.165Z" stroke="url(#paint17_linear_217_1848)" stroke-width="4"/>
<path opacity="0.275362" d="M1032.67 868.572C1036.75 877.369 1045.91 882.66 1055.57 881.797L1338.27 856.566C1344.49 856.011 1350.21 852.954 1354.13 848.097L1598.29 545.38C1601.47 541.434 1603.26 536.548 1603.38 531.48L1611.49 186.504C1611.69 178.096 1607.28 170.25 1600 166.045L1380.31 39.2103C1373.03 35.005 1364.03 35.1107 1356.85 39.486L1062.14 218.996C1057.81 221.633 1054.48 225.626 1052.65 230.354L912.573 593.165C910.326 598.986 910.54 605.472 913.168 611.132L1032.67 868.572Z" stroke="url(#paint18_linear_217_1848)" stroke-width="4"/>
<path opacity="0.289855" d="M993.998 857.155C997.621 866.114 1006.46 871.853 1016.12 871.518L1297.47 861.784C1303.71 861.568 1309.6 858.817 1313.78 854.166L1570.78 568.012C1574.18 564.226 1576.23 559.419 1576.6 554.345L1601.86 213.707C1602.48 205.335 1598.49 197.289 1591.45 192.717L1380.11 55.4696C1373.06 50.8972 1364.09 50.5243 1356.7 54.4966L1055.78 216.117C1051.3 218.525 1047.74 222.352 1045.66 226.998L888.779 578.166C886.229 583.874 886.112 590.374 888.456 596.17L993.998 857.155Z" stroke="url(#paint19_linear_217_1848)" stroke-width="4"/>
<path opacity="0.304348" d="M956.478 844.988C959.635 854.084 968.124 860.251 977.75 860.442L1256.91 865.992C1263.17 866.116 1269.21 863.682 1273.64 859.25L1542.41 590.165C1546.02 586.55 1548.33 581.836 1548.96 576.767L1590.93 241.308C1591.97 232.993 1588.41 224.77 1581.63 219.845L1379.11 72.7073C1372.33 67.7818 1363.41 66.9331 1355.83 70.492L1049.76 214.072C1045.13 216.242 1041.36 219.89 1039.04 224.441L866.177 563.211C863.33 568.79 862.882 575.288 864.935 581.205L956.478 844.988Z" stroke="url(#paint20_linear_217_1848)" stroke-width="4"/>
<path opacity="0.318841" d="M920.134 832.139C922.82 841.348 930.939 847.923 940.505 848.635L1216.65 869.211C1222.91 869.677 1229.09 867.566 1233.75 863.368L1513.22 611.792C1517.04 608.36 1519.59 603.751 1520.49 598.7L1578.71 269.227C1580.16 260.99 1577.03 252.613 1570.53 247.35L1377.29 90.8663C1370.79 85.6029 1361.95 84.2827 1354.19 87.4187L1044.02 212.869C1039.27 214.792 1035.29 218.25 1032.73 222.693L844.754 548.364C841.617 553.799 840.837 560.279 842.594 566.302L920.134 832.139Z" stroke="url(#paint21_linear_217_1848)" stroke-width="4"/>
<path opacity="0.333333" d="M884.993 818.684C887.205 827.981 894.935 834.941 904.412 836.169L1176.75 871.469C1182.98 872.277 1189.28 870.498 1194.17 866.546L1483.25 632.852C1487.26 629.614 1490.06 625.125 1491.21 620.104L1565.17 297.389C1567.04 289.252 1564.35 280.744 1558.14 275.158L1374.6 109.893C1368.39 104.307 1359.65 102.521 1351.75 105.226L1038.54 212.516C1033.66 214.186 1029.49 217.442 1026.69 221.765L824.495 533.693C821.076 538.968 819.965 545.412 821.42 551.528L884.993 818.684Z" stroke="url(#paint22_linear_217_1848)" stroke-width="4"/>
<path opacity="0.347826" d="M851.075 804.696C852.811 814.056 860.134 821.378 869.493 823.115L1137.24 872.795C1143.44 873.944 1149.83 872.503 1154.93 868.809L1452.53 653.307C1456.72 650.273 1459.76 645.916 1461.17 640.938L1550.33 325.717C1552.6 317.701 1550.35 309.085 1544.46 303.194L1371 129.728C1365.1 123.837 1356.49 121.593 1348.47 123.86L1033.25 213.021C1028.27 214.429 1023.92 217.473 1020.88 221.663L805.38 519.26C801.686 524.361 800.246 530.754 801.395 536.946L851.075 804.696Z" stroke="url(#paint23_linear_217_1848)" stroke-width="4"/>
<path opacity="0.362319" d="M818.396 790.251C819.656 799.648 826.554 807.309 835.768 809.544L1098.18 873.221C1104.31 874.709 1110.78 873.612 1116.08 870.188L1421.09 673.12C1425.45 670.301 1428.74 666.088 1430.4 661.167L1534.18 354.138C1536.84 346.262 1535.05 337.562 1529.48 331.383L1366.45 150.315C1360.89 144.137 1352.42 141.441 1344.31 143.266L1028.12 214.387C1023.05 215.527 1018.52 218.349 1015.26 222.394L787.386 505.13C783.426 510.043 781.659 516.367 782.498 522.621L818.396 790.251Z" stroke="url(#paint24_linear_217_1848)" stroke-width="4"/>
<path opacity="0.376812" d="M786.969 775.417C787.754 784.828 794.212 792.802 803.253 795.527L1059.6 872.776C1065.65 874.6 1072.19 873.852 1077.68 870.708L1388.99 692.253C1393.51 689.658 1397.02 685.602 1398.94 680.75L1516.74 382.572C1519.79 374.855 1518.44 366.095 1513.22 359.647L1360.93 171.589C1355.71 165.141 1347.42 162.005 1339.24 163.383L1023.09 216.611C1017.94 217.478 1013.25 220.067 1009.77 223.955L770.486 491.36C766.271 496.071 764.18 502.31 764.706 508.61L786.969 775.417Z" stroke="url(#paint25_linear_217_1848)" stroke-width="4"/>
<path opacity="0.391304" d="M756.801 760.276C757.113 769.676 763.116 777.938 771.959 781.139L1021.55 871.501C1027.51 873.657 1034.09 873.262 1039.74 870.408L1356.25 710.68C1360.93 708.319 1364.66 704.431 1366.83 699.66L1498.01 410.951C1501.43 403.413 1500.54 394.616 1495.67 387.917L1354.42 193.494C1349.55 186.796 1341.46 183.23 1333.23 184.158L1018.12 219.698C1012.91 220.285 1008.06 222.633 1004.37 226.353L754.651 478.013C750.19 482.509 747.78 488.646 747.99 494.977L756.801 760.276Z" stroke="url(#paint26_linear_217_1848)" stroke-width="4"/>
<path opacity="0.405797" d="M727.897 744.897C727.739 754.261 733.275 762.785 741.893 766.45L984.066 869.429C989.907 871.912 996.514 871.872 1002.32 869.318L1322.94 728.365C1327.75 726.246 1331.7 722.539 1334.12 717.862L1478.01 439.197C1481.8 431.856 1481.36 423.046 1476.86 416.118L1346.88 215.962C1342.38 209.033 1334.51 205.05 1326.26 205.527L1013.16 223.637C1007.91 223.941 1002.92 226.038 999.021 229.578L739.849 465.142C735.152 469.411 732.428 475.43 732.322 481.776L727.897 744.897Z" stroke="url(#paint27_linear_217_1848)" stroke-width="4"/>
<path opacity="0.42029" d="M700.254 729.359C699.632 738.663 704.689 747.422 713.058 751.535L947.184 866.603C952.89 869.408 959.504 869.725 965.453 867.479L1289.08 745.287C1294.03 743.42 1298.18 739.904 1300.84 735.334L1456.76 467.245C1460.91 460.119 1460.92 451.321 1456.8 444.182L1338.3 238.937C1334.18 231.798 1326.55 227.41 1318.31 227.437L1008.17 228.428C1002.89 228.445 997.767 230.283 993.676 233.633L726.042 452.806C721.122 456.835 718.09 462.721 717.665 469.066L700.254 729.359Z" stroke="url(#paint28_linear_217_1848)" stroke-width="4"/>
<path opacity="0.434783" d="M673.869 713.727C672.787 722.948 677.356 731.915 685.452 736.461L910.936 863.059C916.492 866.178 923.092 866.853 929.164 864.922L1254.73 761.416C1259.79 759.807 1264.14 756.495 1267.04 752.042L1434.29 495.02C1438.78 488.126 1439.24 479.362 1435.51 472.033L1328.67 262.347C1324.93 255.019 1317.57 250.242 1309.35 249.819L1003.11 234.055C997.806 233.782 992.569 235.354 988.292 238.503L713.191 441.052C708.061 444.829 704.727 450.566 703.985 456.894L673.869 713.727Z" stroke="url(#paint29_linear_217_1848)" stroke-width="4"/>
<path opacity="0.449275" d="M648.73 698.08C647.197 707.196 651.27 716.343 659.07 721.303L875.354 858.843C880.741 862.269 887.31 863.302 893.489 861.694L1219.93 776.737C1225.1 775.393 1229.63 772.294 1232.77 767.972L1410.62 522.46C1415.44 515.815 1416.34 507.108 1413.01 499.612L1317.96 286.136C1314.62 278.64 1307.55 273.489 1299.39 272.62L997.926 240.514C992.619 239.948 987.28 241.247 982.825 244.186L701.257 429.933C695.927 433.449 692.299 439.021 691.24 445.317L648.73 698.08Z" stroke="url(#paint30_linear_217_1848)" stroke-width="4"/>
<path opacity="0.463768" d="M624.827 682.486C622.85 691.473 626.42 700.772 633.902 706.128L840.467 853.997C845.669 857.72 852.187 859.109 858.455 857.83L1184.74 791.226C1189.99 790.154 1194.71 787.279 1198.07 783.098L1385.79 549.497C1390.92 543.116 1392.27 534.49 1389.33 526.847L1306.18 310.237C1303.25 302.594 1296.47 297.087 1288.39 295.776L992.579 247.786C987.286 246.927 981.858 247.946 977.236 250.664L690.194 419.494C684.68 422.738 680.765 428.131 679.391 434.379L624.827 682.486Z" stroke="url(#paint31_linear_217_1848)" stroke-width="4"/>
<path opacity="0.478261" d="M602.14 667.013C599.73 675.849 602.792 685.273 609.935 691.005L806.301 848.563C811.301 852.575 817.748 854.318 824.089 853.373L1149.19 804.869C1154.52 804.074 1159.41 801.433 1162.99 797.406L1359.82 576.069C1365.25 569.966 1367.03 561.444 1364.51 553.677L1293.32 334.586C1290.8 326.819 1284.35 320.973 1276.37 319.226L987.028 255.858C981.764 254.705 976.262 255.437 971.482 257.927L679.956 409.779C674.271 412.741 670.079 417.941 668.392 424.125L602.14 667.013Z" stroke="url(#paint32_linear_217_1848)" stroke-width="4"/>
<path opacity="0.492754" d="M580.65 651.732C577.816 660.396 580.367 669.916 587.153 676.003L772.878 842.592C777.66 846.881 784.018 848.975 790.413 848.367L1113.35 817.655C1118.74 817.142 1123.78 814.743 1127.58 810.881L1332.77 602.118C1338.48 596.308 1340.69 587.911 1338.58 580.043L1279.38 359.123C1277.28 351.254 1271.16 345.088 1263.31 342.912L981.232 264.712C976.013 263.266 970.45 263.707 965.525 265.959L670.496 400.831C664.653 403.502 660.194 408.494 658.198 414.6L580.65 651.732Z" stroke="url(#paint33_linear_217_1848)" stroke-width="4"/>
<path opacity="0.507246" d="M560.33 636.705C557.085 645.177 559.123 654.764 565.533 661.184L740.217 836.124C744.766 840.679 751.015 843.12 757.447 842.853L1077.26 829.57C1082.7 829.344 1087.88 827.197 1091.88 823.51L1304.66 627.584C1310.64 622.08 1313.27 613.83 1311.58 605.882L1264.37 383.783C1262.68 375.835 1256.92 369.369 1249.22 366.772L975.151 274.328C969.993 272.588 964.385 272.734 959.325 274.74L661.761 392.684C655.777 395.056 651.06 399.828 648.758 405.839L560.33 636.705Z" stroke="url(#paint34_linear_217_1848)" stroke-width="4"/>
<path opacity="0.521739" d="M541.153 621.998C537.51 630.257 539.035 639.884 545.052 646.613L708.338 829.209C712.638 834.017 718.76 836.799 725.211 836.875L1040.96 840.609C1046.43 840.673 1051.75 838.785 1055.95 835.284L1275.54 652.413C1281.77 647.227 1284.81 639.146 1283.54 631.141L1248.28 408.506C1247.01 400.502 1241.63 393.755 1234.1 390.747L968.748 284.683C963.667 282.653 958.029 282.5 952.846 284.252L653.7 385.375C647.589 387.441 642.626 391.979 640.022 397.881L541.153 621.998Z" stroke="url(#paint35_linear_217_1848)" stroke-width="4"/>
<path opacity="0.536232" d="M523.089 607.671C519.061 615.698 520.074 625.337 525.683 632.351L677.255 821.893C681.293 826.942 687.269 830.059 693.72 830.48L1004.52 850.766C1010.01 851.124 1015.45 849.504 1019.84 846.198L1245.47 676.556C1251.93 671.698 1255.37 663.806 1254.52 655.768L1231.13 433.231C1230.29 425.193 1225.29 418.188 1217.96 414.78L961.988 295.755C957 293.436 951.347 292.981 946.053 294.473L646.261 378.935C640.038 380.688 634.84 384.979 631.941 390.757L523.089 607.671Z" stroke="url(#paint36_linear_217_1848)" stroke-width="4"/>
<path opacity="0.550725" d="M506.101 593.782C501.702 601.56 502.206 611.181 507.394 618.457L646.979 814.223C650.74 819.499 656.552 822.943 662.985 823.709L967.979 860.039C973.47 860.693 979.012 859.347 983.592 856.248L1214.49 699.961C1221.16 695.443 1224.99 687.76 1224.56 679.711L1212.94 457.899C1212.52 449.85 1207.91 442.609 1200.8 438.813L954.834 307.518C949.956 304.914 944.303 304.154 938.91 305.379L639.385 373.391C633.067 374.825 627.647 378.858 624.458 384.498L506.101 593.782Z" stroke="url(#paint37_linear_217_1848)" stroke-width="4"/>
<path opacity="0.565217" d="M490.151 580.39C485.397 587.901 485.397 597.478 490.151 604.989L617.519 806.249C620.991 811.736 626.621 815.499 633.018 816.61L931.387 868.432C936.864 869.383 942.501 868.318 947.255 865.434L1182.65 722.588C1189.52 718.418 1193.71 710.963 1193.71 702.925V482.454C1193.71 474.416 1189.52 466.961 1182.65 462.791L947.255 319.945C942.501 317.061 936.864 315.996 931.387 316.947L633.018 368.769C626.621 369.88 620.991 373.643 617.519 379.13L490.151 580.39Z" stroke="url(#paint38_linear_217_1848)" stroke-width="4"/>
<path opacity="0.57971" d="M475.198 567.547C470.106 574.774 469.608 584.28 473.916 592L588.882 798.017C592.053 803.699 597.483 807.773 603.826 809.227L894.793 875.946C900.243 877.196 905.961 876.418 910.878 873.757L1150 744.392C1157.05 740.579 1161.61 733.371 1162.03 725.367L1173.48 506.838C1173.9 498.834 1170.12 491.189 1163.51 486.66L939.217 333.008C934.605 329.848 929 328.477 923.45 329.15L627.102 365.089C620.642 365.872 614.816 369.356 611.068 374.676L475.198 567.547Z" stroke="url(#paint39_linear_217_1848)" stroke-width="4"/>
<path opacity="0.594203" d="M461.199 555.303C455.787 562.231 454.798 571.64 458.651 579.542L561.072 789.574C563.931 795.436 569.144 799.809 575.414 801.605L858.249 882.589C863.655 884.137 869.44 883.651 874.511 881.223L1116.61 765.337C1123.82 761.887 1128.72 754.943 1129.56 746.996L1152.26 530.997C1153.09 523.05 1149.74 515.239 1143.41 510.365L930.694 346.676C926.238 343.247 920.681 341.569 915.072 341.959L621.579 362.369C615.073 362.822 609.065 366.015 605.05 371.155L461.199 555.303Z" stroke="url(#paint40_linear_217_1848)" stroke-width="4"/>
<path opacity="0.608696" d="M448.107 543.705C442.392 550.321 440.921 559.605 444.313 567.663L534.088 780.968C536.624 786.992 541.604 791.654 547.783 793.787L821.801 888.369C827.147 890.214 832.984 890.025 838.199 887.838L1082.53 785.388C1089.88 782.308 1095.11 775.644 1096.35 767.775L1130.07 554.879C1131.32 547.011 1128.41 539.057 1122.37 533.857L921.655 360.918C917.371 357.227 911.878 355.243 906.224 355.346L616.389 360.623C609.854 360.742 603.677 363.636 599.404 368.583L448.107 543.705Z" stroke="url(#paint41_linear_217_1848)" stroke-width="4"/>
<path opacity="0.623188" d="M435.875 532.798C429.875 539.088 427.933 548.223 430.856 556.409L507.931 772.244C510.135 778.414 514.865 783.351 520.935 785.817L785.497 893.298C790.767 895.439 796.644 895.552 801.992 893.613L1047.82 804.514C1055.29 801.808 1060.83 795.441 1062.48 787.673L1106.96 578.434C1108.61 570.665 1106.14 562.595 1100.41 557.085L912.077 375.701C907.98 371.756 902.566 369.468 896.881 369.28L611.474 359.862C604.926 359.646 598.597 362.232 594.074 366.973L435.875 532.798Z" stroke="url(#paint42_linear_217_1848)" stroke-width="4"/>
<path opacity="0.637681" d="M424.452 522.625C418.186 528.577 415.785 537.538 418.236 545.825L482.596 763.451C484.459 769.748 488.924 774.949 494.867 777.743L749.385 897.394C754.564 899.828 760.464 900.245 765.933 898.562L1012.54 822.692C1020.11 820.364 1025.95 814.308 1028 806.661L1082.94 601.615C1084.99 593.968 1082.96 585.805 1077.57 580.006L901.936 390.994C898.04 386.802 892.722 384.213 887.02 383.732L606.776 360.094C600.232 359.542 593.764 361.813 589.003 366.336L424.452 522.625Z" stroke="url(#paint43_linear_217_1848)" stroke-width="4"/>
<path opacity="0.652174" d="M413.784 513.221C407.272 518.823 404.425 527.586 406.4 535.946L458.075 754.631C459.589 761.036 463.774 766.487 469.572 769.602L713.507 900.669C718.579 903.394 724.488 904.118 730.067 902.697L976.757 839.894C984.404 837.947 990.519 832.216 992.957 824.712L1058.05 624.374C1060.49 616.869 1058.91 608.639 1053.87 602.569L891.207 406.759C887.528 402.331 882.322 399.443 876.617 398.666L602.231 361.321C595.709 360.433 589.119 362.382 584.129 366.675L413.784 513.221Z" stroke="url(#paint44_linear_217_1848)" stroke-width="4"/>
<path opacity="0.666667" d="M403.818 504.62C397.081 509.862 393.802 518.405 395.3 526.809L434.359 745.829C435.518 752.324 439.41 758.009 445.046 761.439L677.909 903.144C682.858 906.156 688.761 907.189 694.439 906.037L940.527 856.102C948.233 854.538 954.607 849.145 957.425 841.804L1032.33 646.668C1035.15 639.326 1034.02 631.054 1029.34 624.735L879.874 422.962C876.426 418.306 871.348 415.124 865.654 414.05L597.784 363.542C591.301 362.32 584.604 363.94 579.397 367.992L403.818 504.62Z" stroke="url(#paint45_linear_217_1848)" stroke-width="4"/>
<path opacity="0.681159" d="M394.498 496.853C387.556 501.728 383.86 510.028 384.883 518.45L411.437 737.089C412.235 743.654 415.819 749.558 421.276 753.294L642.633 904.842C647.444 908.136 653.326 909.48 659.09 908.601L903.914 871.303C911.661 870.123 918.274 865.079 921.461 857.92L1005.82 668.458C1009 661.299 1008.33 653.01 1004.02 646.463L867.918 439.566C864.714 434.695 859.779 431.223 854.112 429.852L593.374 366.757C586.946 365.201 580.16 366.488 574.748 370.289L394.498 496.853Z" stroke="url(#paint46_linear_217_1848)" stroke-width="4"/>
<path opacity="0.695652" d="M385.768 489.948C378.641 494.448 374.546 502.484 375.095 510.895L389.295 728.453C389.727 735.069 392.992 741.176 398.253 745.209L607.72 905.786C612.377 909.357 618.223 911.012 624.061 910.413L866.982 885.484C874.749 884.687 881.582 880.004 885.127 873.046L978.544 689.706C982.089 682.748 981.862 674.468 977.941 667.715L855.323 456.535C852.376 451.46 847.601 447.703 841.975 446.034L588.944 370.957C582.588 369.071 575.728 370.02 570.123 373.559L385.768 489.948Z" stroke="url(#paint47_linear_217_1848)" stroke-width="4"/>
<path opacity="0.710145" d="M377.57 483.928C370.28 488.045 365.803 495.799 365.882 504.171L367.918 719.962C367.98 726.607 370.914 732.9 375.963 737.221L573.211 906.003C577.699 909.844 583.494 911.81 589.393 911.495L829.797 898.639C837.565 898.223 844.597 893.909 848.487 887.172L950.561 710.375C954.45 703.638 954.671 695.391 951.146 688.455L842.078 473.831C839.401 468.565 834.801 464.53 829.231 462.563L584.437 376.133C578.171 373.921 571.254 374.527 565.468 377.795L377.57 483.928Z" stroke="url(#paint48_linear_217_1848)" stroke-width="4"/>
<path opacity="0.724638" d="M369.843 478.81C362.412 482.541 357.573 489.992 357.187 498.299L347.285 711.654C346.976 718.308 349.568 724.77 354.389 729.367L539.142 905.519C543.446 909.623 549.173 911.901 555.121 911.873L792.419 910.762C800.17 910.725 807.38 906.788 811.601 900.288L921.906 730.434C926.127 723.934 926.791 715.746 923.672 708.651L828.169 491.416C825.775 485.971 821.365 481.665 815.865 479.402L579.796 382.27C573.636 379.735 566.679 379.996 560.725 382.985L369.843 478.81Z" stroke="url(#paint49_linear_217_1848)" stroke-width="4"/>
<path opacity="0.73913" d="M362.531 474.614C354.979 477.954 349.797 485.086 348.954 493.3L327.378 703.569C326.697 710.212 328.936 716.823 333.514 721.685L505.549 904.367C509.655 908.727 515.299 911.314 521.282 911.577L754.914 921.855C762.627 922.194 769.995 918.642 774.532 912.396L892.626 749.855C897.163 743.609 898.265 735.504 895.559 728.274L813.588 509.253C811.489 503.644 807.285 499.075 801.87 496.517L574.966 389.354C568.928 386.502 561.948 386.416 555.841 389.117L362.531 474.614Z" stroke="url(#paint50_linear_217_1848)" stroke-width="4"/>
<path opacity="0.753623" d="M355.573 471.35C347.922 474.296 342.418 481.093 341.126 489.189L308.174 695.742C307.12 702.353 308.998 709.095 313.318 714.209L472.467 902.578C476.359 907.186 481.906 910.079 487.911 910.637L717.343 931.922C724.999 932.632 732.503 929.47 737.342 923.494L862.765 768.61C867.604 762.634 869.137 754.636 866.85 747.295L798.329 527.303C796.535 521.544 792.551 516.721 787.236 513.871L569.894 397.365C563.993 394.202 557.008 393.766 550.761 396.173L355.573 471.35Z" stroke="url(#paint51_linear_217_1848)" stroke-width="4"/>
<path opacity="0.768116" d="M348.908 469.024C341.18 471.576 335.376 478.022 333.646 485.975L289.649 688.206C288.222 694.764 289.731 701.618 293.78 706.971L439.927 900.184C443.591 905.029 449.024 908.227 455.039 909.081L679.767 940.968C687.348 942.043 694.967 939.276 700.091 933.586L832.371 786.674C837.494 780.983 839.45 773.117 837.588 765.69L782.385 545.526C780.908 539.633 777.159 534.564 771.957 531.426L564.526 406.276C558.78 402.809 551.806 402.025 545.433 404.13L348.908 469.024Z" stroke="url(#paint52_linear_217_1848)" stroke-width="4"/>
<path opacity="0.782609" d="M342.479 467.646C334.694 469.803 328.612 475.885 326.455 483.67L271.778 680.998C269.981 687.482 271.114 694.427 274.877 700.005L407.959 897.223C411.382 902.296 416.686 905.795 422.697 906.947L642.248 949.008C649.736 950.443 657.448 948.073 662.839 942.682L801.491 804.03C806.882 798.639 809.251 790.927 807.817 783.439L765.756 563.888C764.604 557.877 761.105 552.573 756.032 549.15L558.814 416.068C553.236 412.305 546.291 411.172 539.807 412.969L342.479 467.646Z" stroke="url(#paint53_linear_217_1848)" stroke-width="4"/>
<path opacity="0.797101" d="M336.226 467.213C328.407 468.975 322.07 474.681 319.499 482.273L254.534 674.143C252.371 680.532 253.122 687.549 256.587 693.336L376.592 893.728C379.76 899.018 384.92 902.814 390.913 904.265L604.847 956.053C612.224 957.839 620.007 955.87 625.648 950.791L770.175 820.658C775.816 815.579 778.588 808.044 777.583 800.521L748.441 582.345C747.625 576.233 744.388 570.705 739.458 567.002L552.709 426.707C547.315 422.656 540.416 421.176 533.835 422.66L336.226 467.213Z" stroke="url(#paint54_linear_217_1848)" stroke-width="4"/>
<path opacity="0.811594" d="M330.088 467.725C322.256 469.096 315.687 474.415 312.718 481.792L237.888 667.676C235.362 673.95 235.726 681.017 238.881 686.998L345.85 889.741C348.749 895.236 353.75 899.325 359.712 901.076L567.618 962.125C574.868 964.253 582.701 962.686 588.573 957.931L738.469 836.547C744.341 831.792 747.503 824.456 746.928 816.923L730.44 600.867C729.967 594.671 727.007 588.93 722.234 584.95L546.162 438.167C540.968 433.837 534.131 432.012 527.469 433.178L330.088 467.725Z" stroke="url(#paint55_linear_217_1848)" stroke-width="4"/>
<path opacity="0.826087" d="M324.011 469.176C316.185 470.158 309.409 475.081 306.056 482.22L221.809 661.622C218.927 667.759 218.9 674.855 221.735 681.014L315.756 885.298C318.375 890.988 323.2 895.364 329.118 897.414L530.621 967.243C537.727 969.705 545.587 968.538 551.671 964.118L706.424 851.684C712.508 847.264 716.046 840.149 715.9 832.63L711.757 619.411C711.636 613.149 708.965 607.207 704.363 602.959L539.132 450.412C534.15 445.812 527.393 443.646 520.665 444.49L324.011 469.176Z" stroke="url(#paint56_linear_217_1848)" stroke-width="4"/>
<path opacity="0.84058" d="M317.935 471.556C310.137 472.154 303.178 476.673 299.46 483.554L206.269 656.005C203.037 661.985 202.616 669.089 205.12 675.409L286.332 880.442C288.657 886.313 293.294 890.969 299.154 893.319L493.91 971.433C500.856 974.219 508.723 973.452 514.999 969.376L674.088 866.062C680.364 861.986 684.265 855.112 684.545 847.633L692.399 637.943C692.636 631.633 690.268 625.504 685.851 620.992L531.575 463.406C526.82 458.549 520.159 456.044 513.381 456.564L317.935 471.556Z" stroke="url(#paint57_linear_217_1848)" stroke-width="4"/>
<path opacity="0.855072" d="M311.806 474.851C304.056 475.071 296.938 479.18 292.873 485.782L191.234 650.847C187.66 656.651 186.844 663.741 189.007 670.204L257.596 875.213C259.616 881.25 264.048 886.18 269.837 888.829L457.537 974.722C464.308 977.821 472.16 977.45 478.608 973.727L641.511 879.675C647.959 875.952 652.206 869.338 652.908 861.925L672.373 656.425C672.973 650.087 670.92 643.784 666.701 639.016L523.453 477.112C518.937 472.007 512.389 469.169 505.576 469.362L311.806 474.851Z" stroke="url(#paint58_linear_217_1848)" stroke-width="4"/>
<path opacity="0.869565" d="M305.568 479.047C297.885 478.894 290.633 482.589 286.241 488.894L176.67 646.17C172.763 651.777 171.553 658.831 173.366 665.42L229.562 869.651C231.266 875.842 235.479 881.038 241.184 883.984L421.553 977.141C428.134 980.54 435.949 980.562 442.549 977.199L608.739 892.521C615.339 889.158 619.915 882.823 621.034 875.501L651.687 674.823C652.656 668.476 650.928 662.013 646.921 656.996L514.727 491.488C510.462 486.148 504.044 482.982 497.211 482.846L305.568 479.047Z" stroke="url(#paint59_linear_217_1848)" stroke-width="4"/>
<path opacity="0.884058" d="M299.17 484.122C291.573 483.606 284.212 486.883 279.513 492.874L162.545 641.992C158.316 647.383 156.711 654.379 158.167 661.074L202.246 863.8C203.622 870.128 207.602 875.584 213.209 878.825L386.006 978.723C392.384 982.41 400.142 982.819 406.872 979.823L575.823 904.601C582.553 901.605 587.44 895.566 588.968 888.358L630.353 693.101C631.696 686.765 630.305 680.157 626.523 674.9L505.363 506.492C501.362 500.93 495.089 497.442 488.253 496.977L299.17 484.122Z" stroke="url(#paint60_linear_217_1848)" stroke-width="4"/>
<path opacity="0.898551" d="M292.558 490.058C285.066 489.186 277.622 492.044 272.637 497.705L148.823 638.331C144.283 643.487 142.286 650.403 143.378 657.186L175.657 857.705C176.695 864.156 180.429 869.861 185.925 873.395L350.941 979.506C357.103 983.469 364.784 984.259 371.623 981.633L542.808 915.922C549.647 913.296 554.827 907.57 556.755 900.502L608.383 711.228C610.103 704.924 609.06 698.187 605.515 692.698L495.33 522.084C491.603 516.313 485.491 512.51 478.667 511.716L292.558 490.058Z" stroke="url(#paint61_linear_217_1848)" stroke-width="4"/>
<path opacity="0.913043" d="M285.686 496.827C278.316 495.61 270.813 498.047 265.566 503.365L135.471 635.199C130.633 640.102 128.247 646.915 128.969 653.766L149.805 851.406C150.497 857.963 153.969 863.909 159.341 867.732L316.404 979.527C322.338 983.751 329.921 984.914 336.849 982.664L509.743 926.487C516.67 924.236 522.122 918.837 524.44 911.932L585.795 729.169C587.893 722.918 587.208 716.067 583.913 710.356L484.599 538.214C481.157 532.248 475.222 528.138 468.426 527.016L285.686 496.827Z" stroke="url(#paint62_linear_217_1848)" stroke-width="4"/>
<path opacity="0.927536" d="M278.505 504.403C271.274 502.85 263.738 504.869 258.252 509.829L122.453 632.61C117.33 637.242 114.56 643.931 114.907 650.828L124.695 844.949C125.03 851.596 128.228 857.772 133.463 861.882L282.432 978.829C288.127 983.299 295.594 984.827 302.587 982.954L476.671 936.308C483.665 934.434 489.367 929.377 492.064 922.658L562.601 746.895C565.08 740.718 564.762 733.77 561.728 727.846L473.144 554.839C469.997 548.692 464.253 544.284 457.5 542.834L278.505 504.403Z" stroke="url(#paint63_linear_217_1848)" stroke-width="4"/>
<path opacity="0.942029" d="M270.97 512.752C263.894 510.876 256.349 512.48 250.648 517.072L109.733 630.57C104.34 634.914 101.191 641.457 101.16 648.382L100.329 838.375C100.3 845.095 103.211 851.491 108.296 855.883L249.064 977.451C254.509 982.154 261.841 984.037 268.879 982.541L443.638 945.395C450.676 943.899 456.608 939.196 459.67 932.686L538.821 764.372C541.681 758.291 541.738 751.264 538.978 745.138L460.942 571.908C458.098 565.594 452.56 560.898 445.866 559.123L270.97 512.752Z" stroke="url(#paint64_linear_217_1848)" stroke-width="4"/>
<path opacity="0.956522" d="M263.039 521.847C256.134 519.66 248.604 520.853 242.713 525.066L97.2764 629.092C91.6288 633.132 88.1084 639.507 87.6974 646.438L76.7114 831.732C76.3097 838.506 78.9199 845.112 83.8433 849.782L216.336 975.444C221.522 980.364 228.701 982.592 235.761 981.473L410.688 953.768C417.748 952.649 423.887 948.312 427.3 942.031L514.475 781.576C517.715 775.614 518.156 768.525 515.681 762.206L447.973 589.376C445.441 582.911 440.123 577.936 433.503 575.839L263.039 521.847Z" stroke="url(#paint65_linear_217_1848)" stroke-width="4"/>
<path opacity="0.971014" d="M254.672 531.645C247.953 529.16 240.461 529.948 234.406 533.775L85.0476 628.175C79.1624 631.895 75.2787 638.08 74.4856 644.997L53.8384 825.058C53.0576 831.867 55.3547 838.671 60.1037 843.613L184.278 972.848C189.197 977.968 196.206 980.529 203.267 979.787L377.861 961.436C384.923 960.694 391.245 956.732 394.993 950.701L489.584 798.473C493.201 792.651 494.034 785.519 491.854 779.02L434.222 607.187C432.008 600.586 426.923 595.344 420.393 592.929L254.672 531.645Z" stroke="url(#paint66_linear_217_1848)" stroke-width="4"/>
<path opacity="0.985507" d="M245.83 542.116C239.311 539.348 231.881 539.737 225.687 543.172L73.0104 627.828C66.9053 631.213 62.668 637.188 61.4922 644.069L31.7059 818.4C30.5395 825.227 32.5113 832.216 37.0739 837.426L152.918 969.719C157.563 975.023 164.385 977.904 171.426 977.535L345.197 968.428C352.238 968.059 358.721 964.481 362.786 958.72L464.168 815.043C468.161 809.385 469.391 802.228 467.518 795.561L419.672 625.298C417.783 618.577 412.945 613.078 406.519 610.35L245.83 542.116Z" stroke="url(#paint67_linear_217_1848)" stroke-width="4"/>
<path d="M236.479 553.215C230.173 550.178 222.827 550.178 216.521 553.215L61.13 628.047C54.8237 631.084 50.2435 636.828 48.686 643.652L10.3077 811.798C8.75018 818.622 10.3848 825.784 14.7489 831.256L122.283 966.099C126.647 971.572 133.265 974.759 140.265 974.759H312.735C319.735 974.759 326.353 971.572 330.717 966.099L438.251 831.256C442.615 825.784 444.25 818.622 442.692 811.798L404.314 643.652C402.756 636.828 398.176 631.084 391.87 628.047L236.479 553.215Z" stroke="url(#paint68_linear_217_1848)" stroke-width="4"/>
</g>
<defs>
<linearGradient id="paint0_linear_217_1848" x1="1884.92" y1="882.214" x2="1406.8" y2="-191.647" gradientUnits="userSpaceOnUse">
<stop stop-color="#BCBCBC" stop-opacity="0.8"/>
<stop offset="1" stop-color="#004E93"/>
</linearGradient>
<linearGradient id="paint1_linear_217_1848" x1="1834.72" y1="894.894" x2="1417.18" y2="-192.832" gradientUnits="userSpaceOnUse">
<stop stop-color="#BCBCBC" stop-opacity="0.8"/>
<stop offset="1" stop-color="#004E93"/>
</linearGradient>
<linearGradient id="paint2_linear_217_1848" x1="1784.47" y1="905.952" x2="1427.63" y2="-192.269" gradientUnits="userSpaceOnUse">
<stop stop-color="#BCBCBC" stop-opacity="0.8"/>
<stop offset="1" stop-color="#004E93"/>
</linearGradient>
<linearGradient id="paint3_linear_217_1848" x1="1734.24" y1="915.397" x2="1438.06" y2="-189.972" gradientUnits="userSpaceOnUse">
<stop stop-color="#BCBCBC" stop-opacity="0.8"/>
<stop offset="1" stop-color="#004E93"/>
</linearGradient>
<linearGradient id="paint4_linear_217_1848" x1="1684.12" y1="923.248" x2="1448.35" y2="-185.959" gradientUnits="userSpaceOnUse">
<stop stop-color="#BCBCBC" stop-opacity="0.8"/>
<stop offset="1" stop-color="#004E93"/>
</linearGradient>
<linearGradient id="paint5_linear_217_1848" x1="1634.21" y1="929.523" x2="1458.44" y2="-180.256" gradientUnits="userSpaceOnUse">
<stop stop-color="#BCBCBC" stop-opacity="0.8"/>
<stop offset="1" stop-color="#004E93"/>
</linearGradient>
<linearGradient id="paint6_linear_217_1848" x1="1584.58" y1="934.251" x2="1468.21" y2="-172.888" gradientUnits="userSpaceOnUse">
<stop stop-color="#BCBCBC" stop-opacity="0.8"/>
<stop offset="1" stop-color="#004E93"/>
</linearGradient>
<linearGradient id="paint7_linear_217_1848" x1="1535.32" y1="937.462" x2="1477.6" y2="-163.889" gradientUnits="userSpaceOnUse">
<stop stop-color="#BCBCBC" stop-opacity="0.8"/>
<stop offset="1" stop-color="#004E93"/>
</linearGradient>
<linearGradient id="paint8_linear_217_1848" x1="1486.5" y1="939.189" x2="1486.5" y2="-153.298" gradientUnits="userSpaceOnUse">
<stop stop-color="#BCBCBC" stop-opacity="0.8"/>
<stop offset="1" stop-color="#004E93"/>
</linearGradient>
<linearGradient id="paint9_linear_217_1848" x1="1438.21" y1="939.475" x2="1494.84" y2="-141.154" gradientUnits="userSpaceOnUse">
<stop stop-color="#BCBCBC" stop-opacity="0.8"/>
<stop offset="1" stop-color="#004E93"/>
</linearGradient>
<linearGradient id="paint10_linear_217_1848" x1="1390.51" y1="938.36" x2="1502.54" y2="-127.507" gradientUnits="userSpaceOnUse">
<stop stop-color="#BCBCBC" stop-opacity="0.8"/>
<stop offset="1" stop-color="#004E93"/>
</linearGradient>
<linearGradient id="paint11_linear_217_1848" x1="1343.48" y1="935.893" x2="1509.52" y2="-112.402" gradientUnits="userSpaceOnUse">
<stop stop-color="#BCBCBC" stop-opacity="0.8"/>
<stop offset="1" stop-color="#004E93"/>
</linearGradient>
<linearGradient id="paint12_linear_217_1848" x1="1297.19" y1="932.122" x2="1515.71" y2="-95.8986" gradientUnits="userSpaceOnUse">
<stop stop-color="#BCBCBC" stop-opacity="0.8"/>
<stop offset="1" stop-color="#004E93"/>
</linearGradient>
<linearGradient id="paint13_linear_217_1848" x1="1251.7" y1="927.102" x2="1521.03" y2="-78.0521" gradientUnits="userSpaceOnUse">
<stop stop-color="#BCBCBC" stop-opacity="0.8"/>
<stop offset="1" stop-color="#004E93"/>
</linearGradient>
<linearGradient id="paint14_linear_217_1848" x1="1207.07" y1="920.89" x2="1525.43" y2="-58.9245" gradientUnits="userSpaceOnUse">
<stop stop-color="#BCBCBC" stop-opacity="0.8"/>
<stop offset="1" stop-color="#004E93"/>
</linearGradient>
<linearGradient id="paint15_linear_217_1848" x1="1163.36" y1="913.544" x2="1528.85" y2="-38.5796" gradientUnits="userSpaceOnUse">
<stop stop-color="#BCBCBC" stop-opacity="0.8"/>
<stop offset="1" stop-color="#004E93"/>
</linearGradient>
<linearGradient id="paint16_linear_217_1848" x1="1120.62" y1="905.13" x2="1531.22" y2="-17.0831" gradientUnits="userSpaceOnUse">
<stop stop-color="#BCBCBC" stop-opacity="0.8"/>
<stop offset="1" stop-color="#004E93"/>
</linearGradient>
<linearGradient id="paint17_linear_217_1848" x1="1078.9" y1="895.71" x2="1532.49" y2="5.49437" gradientUnits="userSpaceOnUse">
<stop stop-color="#BCBCBC" stop-opacity="0.8"/>
<stop offset="1" stop-color="#004E93"/>
</linearGradient>
<linearGradient id="paint18_linear_217_1848" x1="1038.25" y1="885.352" x2="1532.62" y2="29.0798" gradientUnits="userSpaceOnUse">
<stop stop-color="#BCBCBC" stop-opacity="0.8"/>
<stop offset="1" stop-color="#004E93"/>
</linearGradient>
<linearGradient id="paint19_linear_217_1848" x1="998.702" y1="874.122" x2="1531.56" y2="53.5983" gradientUnits="userSpaceOnUse">
<stop stop-color="#BCBCBC" stop-opacity="0.8"/>
<stop offset="1" stop-color="#004E93"/>
</linearGradient>
<linearGradient id="paint20_linear_217_1848" x1="960.299" y1="862.096" x2="1529.27" y2="78.9776" gradientUnits="userSpaceOnUse">
<stop stop-color="#BCBCBC" stop-opacity="0.8"/>
<stop offset="1" stop-color="#004E93"/>
</linearGradient>
<linearGradient id="paint21_linear_217_1848" x1="923.068" y1="849.342" x2="1525.71" y2="105.137" gradientUnits="userSpaceOnUse">
<stop stop-color="#BCBCBC" stop-opacity="0.8"/>
<stop offset="1" stop-color="#004E93"/>
</linearGradient>
<linearGradient id="paint22_linear_217_1848" x1="887.042" y1="835.935" x2="1520.87" y2="132" gradientUnits="userSpaceOnUse">
<stop stop-color="#BCBCBC" stop-opacity="0.8"/>
<stop offset="1" stop-color="#004E93"/>
</linearGradient>
<linearGradient id="paint23_linear_217_1848" x1="852.242" y1="821.948" x2="1514.7" y2="159.486" gradientUnits="userSpaceOnUse">
<stop stop-color="#BCBCBC" stop-opacity="0.8"/>
<stop offset="1" stop-color="#004E93"/>
</linearGradient>
<linearGradient id="paint24_linear_217_1848" x1="818.686" y1="807.457" x2="1507.2" y2="187.516" gradientUnits="userSpaceOnUse">
<stop stop-color="#BCBCBC" stop-opacity="0.8"/>
<stop offset="1" stop-color="#004E93"/>
</linearGradient>
<linearGradient id="paint25_linear_217_1848" x1="786.39" y1="792.534" x2="1498.34" y2="216.006" gradientUnits="userSpaceOnUse">
<stop stop-color="#BCBCBC" stop-opacity="0.8"/>
<stop offset="1" stop-color="#004E93"/>
</linearGradient>
<linearGradient id="paint26_linear_217_1848" x1="755.364" y1="777.258" x2="1488.12" y2="244.879" gradientUnits="userSpaceOnUse">
<stop stop-color="#BCBCBC" stop-opacity="0.8"/>
<stop offset="1" stop-color="#004E93"/>
</linearGradient>
<linearGradient id="paint27_linear_217_1848" x1="725.614" y1="761.701" x2="1476.53" y2="274.051" gradientUnits="userSpaceOnUse">
<stop stop-color="#BCBCBC" stop-opacity="0.8"/>
<stop offset="1" stop-color="#004E93"/>
</linearGradient>
<linearGradient id="paint28_linear_217_1848" x1="697.141" y1="745.941" x2="1463.56" y2="303.447" gradientUnits="userSpaceOnUse">
<stop stop-color="#BCBCBC" stop-opacity="0.8"/>
<stop offset="1" stop-color="#004E93"/>
</linearGradient>
<linearGradient id="paint29_linear_217_1848" x1="669.941" y1="730.046" x2="1449.23" y2="332.98" gradientUnits="userSpaceOnUse">
<stop stop-color="#BCBCBC" stop-opacity="0.8"/>
<stop offset="1" stop-color="#004E93"/>
</linearGradient>
<linearGradient id="paint30_linear_217_1848" x1="644.009" y1="714.096" x2="1433.53" y2="362.579" gradientUnits="userSpaceOnUse">
<stop stop-color="#BCBCBC" stop-opacity="0.8"/>
<stop offset="1" stop-color="#004E93"/>
</linearGradient>
<linearGradient id="paint31_linear_217_1848" x1="619.332" y1="698.158" x2="1416.48" y2="392.161" gradientUnits="userSpaceOnUse">
<stop stop-color="#BCBCBC" stop-opacity="0.8"/>
<stop offset="1" stop-color="#004E93"/>
</linearGradient>
<linearGradient id="paint32_linear_217_1848" x1="595.896" y1="682.304" x2="1398.1" y2="421.652" gradientUnits="userSpaceOnUse">
<stop stop-color="#BCBCBC" stop-opacity="0.8"/>
<stop offset="1" stop-color="#004E93"/>
</linearGradient>
<linearGradient id="paint33_linear_217_1848" x1="573.681" y1="666.606" x2="1378.41" y2="450.981" gradientUnits="userSpaceOnUse">
<stop stop-color="#BCBCBC" stop-opacity="0.8"/>
<stop offset="1" stop-color="#004E93"/>
</linearGradient>
<linearGradient id="paint34_linear_217_1848" x1="552.665" y1="651.127" x2="1357.42" y2="480.07" gradientUnits="userSpaceOnUse">
<stop stop-color="#BCBCBC" stop-opacity="0.8"/>
<stop offset="1" stop-color="#004E93"/>
</linearGradient>
<linearGradient id="paint35_linear_217_1848" x1="532.82" y1="635.934" x2="1335.18" y2="508.853" gradientUnits="userSpaceOnUse">
<stop stop-color="#BCBCBC" stop-opacity="0.8"/>
<stop offset="1" stop-color="#004E93"/>
</linearGradient>
<linearGradient id="paint36_linear_217_1848" x1="514.117" y1="621.09" x2="1311.71" y2="537.26" gradientUnits="userSpaceOnUse">
<stop stop-color="#BCBCBC" stop-opacity="0.8"/>
<stop offset="1" stop-color="#004E93"/>
</linearGradient>
<linearGradient id="paint37_linear_217_1848" x1="496.523" y1="606.655" x2="1287.05" y2="565.226" gradientUnits="userSpaceOnUse">
<stop stop-color="#BCBCBC" stop-opacity="0.8"/>
<stop offset="1" stop-color="#004E93"/>
</linearGradient>
<linearGradient id="paint38_linear_217_1848" x1="480" y1="592.689" x2="1261.24" y2="592.689" gradientUnits="userSpaceOnUse">
<stop stop-color="#BCBCBC" stop-opacity="0.8"/>
<stop offset="1" stop-color="#004E93"/>
</linearGradient>
<linearGradient id="paint39_linear_217_1848" x1="464.509" y1="579.247" x2="1234.31" y2="619.591" gradientUnits="userSpaceOnUse">
<stop stop-color="#BCBCBC" stop-opacity="0.8"/>
<stop offset="1" stop-color="#004E93"/>
</linearGradient>
<linearGradient id="paint40_linear_217_1848" x1="450.008" y1="566.38" x2="1206.33" y2="645.873" gradientUnits="userSpaceOnUse">
<stop stop-color="#BCBCBC" stop-opacity="0.8"/>
<stop offset="1" stop-color="#004E93"/>
</linearGradient>
<linearGradient id="paint41_linear_217_1848" x1="436.45" y1="554.138" x2="1177.33" y2="671.482" gradientUnits="userSpaceOnUse">
<stop stop-color="#BCBCBC" stop-opacity="0.8"/>
<stop offset="1" stop-color="#004E93"/>
</linearGradient>
<linearGradient id="paint42_linear_217_1848" x1="423.79" y1="542.568" x2="1147.36" y2="696.368" gradientUnits="userSpaceOnUse">
<stop stop-color="#BCBCBC" stop-opacity="0.8"/>
<stop offset="1" stop-color="#004E93"/>
</linearGradient>
<linearGradient id="paint43_linear_217_1848" x1="411.978" y1="531.715" x2="1116.49" y2="720.488" gradientUnits="userSpaceOnUse">
<stop stop-color="#BCBCBC" stop-opacity="0.8"/>
<stop offset="1" stop-color="#004E93"/>
</linearGradient>
<linearGradient id="paint44_linear_217_1848" x1="400.959" y1="521.616" x2="1084.76" y2="743.795" gradientUnits="userSpaceOnUse">
<stop stop-color="#BCBCBC" stop-opacity="0.8"/>
<stop offset="1" stop-color="#004E93"/>
</linearGradient>
<linearGradient id="paint45_linear_217_1848" x1="390.683" y1="512.307" x2="1052.23" y2="766.251" gradientUnits="userSpaceOnUse">
<stop stop-color="#BCBCBC" stop-opacity="0.8"/>
<stop offset="1" stop-color="#004E93"/>
</linearGradient>
<linearGradient id="paint46_linear_217_1848" x1="381.092" y1="503.823" x2="1018.96" y2="787.822" gradientUnits="userSpaceOnUse">
<stop stop-color="#BCBCBC" stop-opacity="0.8"/>
<stop offset="1" stop-color="#004E93"/>
</linearGradient>
<linearGradient id="paint47_linear_217_1848" x1="372.131" y1="496.192" x2="985.021" y2="808.475" gradientUnits="userSpaceOnUse">
<stop stop-color="#BCBCBC" stop-opacity="0.8"/>
<stop offset="1" stop-color="#004E93"/>
</linearGradient>
<linearGradient id="paint48_linear_217_1848" x1="363.743" y1="489.44" x2="950.465" y2="828.184" gradientUnits="userSpaceOnUse">
<stop stop-color="#BCBCBC" stop-opacity="0.8"/>
<stop offset="1" stop-color="#004E93"/>
</linearGradient>
<linearGradient id="paint49_linear_217_1848" x1="355.868" y1="483.588" x2="915.355" y2="846.924" gradientUnits="userSpaceOnUse">
<stop stop-color="#BCBCBC" stop-opacity="0.8"/>
<stop offset="1" stop-color="#004E93"/>
</linearGradient>
<linearGradient id="paint50_linear_217_1848" x1="348.447" y1="478.656" x2="879.758" y2="864.677" gradientUnits="userSpaceOnUse">
<stop stop-color="#BCBCBC" stop-opacity="0.8"/>
<stop offset="1" stop-color="#004E93"/>
</linearGradient>
<linearGradient id="paint51_linear_217_1848" x1="341.419" y1="474.657" x2="843.737" y2="881.427" gradientUnits="userSpaceOnUse">
<stop stop-color="#BCBCBC" stop-opacity="0.8"/>
<stop offset="1" stop-color="#004E93"/>
</linearGradient>
<linearGradient id="paint52_linear_217_1848" x1="334.726" y1="471.601" x2="807.357" y2="897.16" gradientUnits="userSpaceOnUse">
<stop stop-color="#BCBCBC" stop-opacity="0.8"/>
<stop offset="1" stop-color="#004E93"/>
</linearGradient>
<linearGradient id="paint53_linear_217_1848" x1="328.307" y1="469.498" x2="770.682" y2="911.873" gradientUnits="userSpaceOnUse">
<stop stop-color="#BCBCBC" stop-opacity="0.8"/>
<stop offset="1" stop-color="#004E93"/>
</linearGradient>
<linearGradient id="paint54_linear_217_1848" x1="322.103" y1="468.346" x2="733.777" y2="925.557" gradientUnits="userSpaceOnUse">
<stop stop-color="#BCBCBC" stop-opacity="0.8"/>
<stop offset="1" stop-color="#004E93"/>
</linearGradient>
<linearGradient id="paint55_linear_217_1848" x1="316.053" y1="468.151" x2="696.705" y2="938.218" gradientUnits="userSpaceOnUse">
<stop stop-color="#BCBCBC" stop-opacity="0.8"/>
<stop offset="1" stop-color="#004E93"/>
</linearGradient>
<linearGradient id="paint56_linear_217_1848" x1="310.099" y1="468.906" x2="659.53" y2="949.857" gradientUnits="userSpaceOnUse">
<stop stop-color="#BCBCBC" stop-opacity="0.8"/>
<stop offset="1" stop-color="#004E93"/>
</linearGradient>
<linearGradient id="paint57_linear_217_1848" x1="304.184" y1="470.605" x2="622.315" y2="960.482" gradientUnits="userSpaceOnUse">
<stop stop-color="#BCBCBC" stop-opacity="0.8"/>
<stop offset="1" stop-color="#004E93"/>
</linearGradient>
<linearGradient id="paint58_linear_217_1848" x1="298.25" y1="473.234" x2="585.119" y2="970.106" gradientUnits="userSpaceOnUse">
<stop stop-color="#BCBCBC" stop-opacity="0.8"/>
<stop offset="1" stop-color="#004E93"/>
</linearGradient>
<linearGradient id="paint59_linear_217_1848" x1="292.242" y1="476.782" x2="548.003" y2="978.742" gradientUnits="userSpaceOnUse">
<stop stop-color="#BCBCBC" stop-opacity="0.8"/>
<stop offset="1" stop-color="#004E93"/>
</linearGradient>
<linearGradient id="paint60_linear_217_1848" x1="286.105" y1="481.229" x2="511.025" y2="986.409" gradientUnits="userSpaceOnUse">
<stop stop-color="#BCBCBC" stop-opacity="0.8"/>
<stop offset="1" stop-color="#004E93"/>
</linearGradient>
<linearGradient id="paint61_linear_217_1848" x1="279.786" y1="486.559" x2="474.241" y2="993.131" gradientUnits="userSpaceOnUse">
<stop stop-color="#BCBCBC" stop-opacity="0.8"/>
<stop offset="1" stop-color="#004E93"/>
</linearGradient>
<linearGradient id="paint62_linear_217_1848" x1="273.237" y1="492.744" x2="437.708" y2="998.931" gradientUnits="userSpaceOnUse">
<stop stop-color="#BCBCBC" stop-opacity="0.8"/>
<stop offset="1" stop-color="#004E93"/>
</linearGradient>
<linearGradient id="paint63_linear_217_1848" x1="266.407" y1="499.76" x2="401.475" y2="1003.84" gradientUnits="userSpaceOnUse">
<stop stop-color="#BCBCBC" stop-opacity="0.8"/>
<stop offset="1" stop-color="#004E93"/>
</linearGradient>
<linearGradient id="paint64_linear_217_1848" x1="259.249" y1="507.576" x2="365.594" y2="1007.89" gradientUnits="userSpaceOnUse">
<stop stop-color="#BCBCBC" stop-opacity="0.8"/>
<stop offset="1" stop-color="#004E93"/>
</linearGradient>
<linearGradient id="paint65_linear_217_1848" x1="251.721" y1="516.164" x2="330.112" y2="1011.11" gradientUnits="userSpaceOnUse">
<stop stop-color="#BCBCBC" stop-opacity="0.8"/>
<stop offset="1" stop-color="#004E93"/>
</linearGradient>
<linearGradient id="paint66_linear_217_1848" x1="243.779" y1="525.484" x2="295.075" y2="1013.53" gradientUnits="userSpaceOnUse">
<stop stop-color="#BCBCBC" stop-opacity="0.8"/>
<stop offset="1" stop-color="#004E93"/>
</linearGradient>
<linearGradient id="paint67_linear_217_1848" x1="235.384" y1="535.508" x2="260.525" y2="1015.21" gradientUnits="userSpaceOnUse">
<stop stop-color="#BCBCBC" stop-opacity="0.8"/>
<stop offset="1" stop-color="#004E93"/>
</linearGradient>
<linearGradient id="paint68_linear_217_1848" x1="226.5" y1="546.189" x2="226.5" y2="1016.18" gradientUnits="userSpaceOnUse">
<stop stop-color="#BCBCBC" stop-opacity="0.8"/>
<stop offset="1" stop-color="#004E93"/>
</linearGradient>
</defs>
</svg>
