<svg width="52" height="52" viewBox="0 0 52 52" fill="none" xmlns="http://www.w3.org/2000/svg">
<path d="M25.6008 0.181641C11.7861 0.181641 0.117188 11.8506 0.117188 25.6652C0.117188 39.4798 11.7861 51.1488 25.6008 51.1488C39.4154 51.1488 51.0843 39.4798 51.0843 25.6652C51.0843 11.8506 39.4154 0.181641 25.6008 0.181641ZM25.6008 12.9234C30.0018 12.9234 33.2458 16.1649 33.2458 20.5685C33.2458 24.9721 30.0018 28.2136 25.6008 28.2136C21.2023 28.2136 17.9557 24.9721 17.9557 20.5685C17.9557 16.1649 21.2023 12.9234 25.6008 12.9234ZM12.5888 37.826C14.8747 34.4621 18.6871 32.2196 23.0524 32.2196H28.1491C32.517 32.2196 36.3268 34.4621 38.6127 37.826C35.3559 41.3121 30.7357 43.5037 25.6008 43.5037C20.4658 43.5037 15.8456 41.3121 12.5888 37.826Z" fill="#ccc"/>
</svg>
