<svg width="40" height="38" viewBox="0 0 40 38" fill="none" xmlns="http://www.w3.org/2000/svg">
<path d="M1.41211 14.6934H38.5809V37.7121H1.41211V14.6934Z" fill="#EBEBEB"/>
<path d="M3.2998 16.5547H6.88731V20.1422H3.2998V16.5547ZM8.5873 16.5547H12.1748V20.1422H8.5873V16.5547ZM3.2998 21.7859H6.88731V25.3734H3.2998V21.7859ZM8.5873 21.7859H12.1748V25.3734H8.5873V21.7859ZM3.2998 27.0234H6.88731V30.6109H3.2998V27.0234ZM8.5873 27.0234H12.1748V30.6109H8.5873V27.0234ZM3.2998 32.2609H6.88731V35.8484H3.2998V32.2609ZM8.5873 32.2609H12.1748V35.8484H8.5873V32.2609ZM27.8311 16.5547H31.4186V20.1422H27.8311V16.5547ZM33.1123 16.5547H36.6998V20.1422H33.1123V16.5547ZM27.8311 21.7859H31.4186V25.3734H27.8311V21.7859ZM33.1123 21.7859H36.6998V25.3734H33.1123V21.7859ZM27.8311 27.0234H31.4186V30.6109H27.8311V27.0234ZM33.1123 27.0234H36.6998V30.6109H33.1123V27.0234ZM27.8311 32.2609H31.4186V35.8484H27.8311V32.2609ZM33.1123 32.2609H36.6998V35.8484H33.1123V32.2609Z" fill="#5DAFD8"/>
<path d="M40 15.3367H0L2.375 7.79297H37.625L40 15.3367Z" fill="#EF5227"/>
<path d="M24.9004 15.3367V7.79297H28.6316L26.2379 15.3367H24.9004ZM15.1004 15.3367V7.79297H11.3691L13.7629 15.3367H15.1004Z" fill="#445C6C"/>
<path d="M26.2254 37.7125H13.7754V3.83125L20.0004 1L26.2254 3.83125V37.7125Z" fill="#DADDE1"/>
<path d="M13.4316 5.1555L20.1254 1.9305L26.5691 5.14925C26.6316 5.1805 26.6941 5.193 26.7629 5.193H28.3004C28.5566 5.193 28.7629 4.968 28.7629 4.68675V4.693C28.7629 4.49925 28.6566 4.318 28.4941 4.23675L20.9879 0.492996C20.4379 0.217996 19.8129 0.217996 19.2629 0.480496L11.5191 4.2305C11.3504 4.31175 11.2441 4.493 11.2441 4.693C11.2441 4.968 11.4504 5.19925 11.7066 5.19925H13.2441C13.3066 5.19925 13.3691 5.1805 13.4316 5.1555Z" fill="#CA3941"/>
<path d="M16.0938 26.1992H23.9062V37.7117H16.0938V26.1992Z" fill="#445C6C"/>
<path d="M20 19.2617C23.2792 19.2617 25.9375 16.6034 25.9375 13.3242C25.9375 10.045 23.2792 7.38672 20 7.38672C16.7208 7.38672 14.0625 10.045 14.0625 13.3242C14.0625 16.6034 16.7208 19.2617 20 19.2617Z" fill="white"/>
<path d="M18.75 8.98633H21.25V17.6613H18.75V8.98633Z" fill="#EF5227"/>
<path d="M15.6621 12.0742H24.3371V14.5742H15.6621V12.0742Z" fill="#EF5227"/>
</svg>
