<svg width="52" height="39" viewBox="0 0 52 39" fill="none" xmlns="http://www.w3.org/2000/svg">
<path d="M37.7422 17.0272V17.6198C37.7422 18.3457 37.8585 19.067 38.0865 19.7557L39.4196 23.7819H41.9357V14.4941H40.2583C38.8687 14.4942 37.7422 15.6282 37.7422 17.0272Z" fill="#5A4146"/>
<path d="M49.2253 18.7816L47.8061 23.7824L41.0964 17.8721C40.1699 17.8721 39.4189 17.116 39.4189 16.1834C39.4189 14.7845 40.5455 13.6504 41.9351 13.6504H47.806C48.7324 13.6504 49.4834 14.4065 49.4834 15.3391V16.9261C49.4834 17.5537 49.3966 18.1782 49.2253 18.7816Z" fill="#694B4B"/>
<path d="M41.0957 26.3164H46.1279V30.0533H41.0957V26.3164Z" fill="#E6AF78"/>
<path d="M41.0967 27.8654C41.8745 28.1836 42.7228 28.3627 43.6128 28.3627C44.5028 28.3627 45.351 28.1836 46.1289 27.8654V26.3145H41.0967V27.8654Z" fill="#D29B6E"/>
<path d="M50.1758 29.5271L46.1295 28.3634L43.6136 30.0442L41.0975 28.3633L37.0514 29.5271C36.5257 29.6784 36.0632 29.9979 35.7339 30.4373C35.4047 30.8768 35.2266 31.4122 35.2266 31.9627V38.1358C35.2266 38.3597 35.3149 38.5745 35.4722 38.7328C35.6295 38.8912 35.8428 38.9801 36.0653 38.9801H51.162C51.3845 38.9801 51.5978 38.8912 51.7551 38.7328C51.9124 38.5745 52.0007 38.3597 52.0007 38.1358V31.9627C52.0007 31.4122 51.8226 30.8768 51.4933 30.4373C51.164 29.9978 50.7015 29.6783 50.1758 29.5271Z" fill="#D5DCED"/>
<path d="M44.4518 38.9789H42.7744L43.1938 30.0508H44.0325L44.4518 38.9789Z" fill="#AFB9D2"/>
<path d="M43.6123 27.1602C40.833 27.1602 38.5801 24.892 38.5801 22.0942V21.105C38.5801 20.6572 38.7568 20.2276 39.0713 19.9109L40.5922 18.3798C40.9143 18.0556 41.3547 17.8692 41.8099 17.8836C44.4909 17.9688 46.864 18.547 48.1613 19.8225C48.4789 20.1347 48.6446 20.5715 48.6446 21.0183V22.0942C48.6446 24.8921 46.3916 27.1602 43.6123 27.1602Z" fill="#F0C087"/>
<path d="M41.0962 21.3145C41.0962 20.3405 41.9087 19.5663 42.8742 19.6283C44.5674 19.7371 47.0798 20.0219 48.6213 20.7683C48.571 20.4121 48.4189 20.0758 48.1613 19.8225C46.864 18.547 44.4909 17.9688 41.8099 17.8836L41.8098 17.8837C41.3547 17.8693 40.9142 18.0557 40.5922 18.3798L39.0714 19.9108C38.9156 20.0676 38.7921 20.2537 38.7078 20.4586C38.6235 20.6635 38.5801 20.8831 38.5801 21.1049V22.0941C38.5801 24.4044 40.1178 26.3496 42.218 26.9588C41.519 26.0905 41.0963 24.9883 41.0963 23.7828L41.0962 21.3145Z" fill="#E6AF78"/>
<path d="M48.6455 34.4782C48.6455 33.8063 48.9106 33.1621 49.3824 32.6871L51.5414 30.5137C51.8299 30.9289 52.0003 31.4288 52.0003 31.9624V38.1355C52.0003 38.3594 51.912 38.5742 51.7547 38.7325C51.5974 38.8909 51.3841 38.9798 51.1616 38.9798H48.6455V34.4782Z" fill="#C7CFE2"/>
<path d="M44.0325 31.7394H43.1938C43.0826 31.7394 42.9759 31.6949 42.8973 31.6158C42.8186 31.5366 42.7744 31.4292 42.7744 31.3173V30.0508H44.4518V31.3173C44.4518 31.3727 44.441 31.4276 44.4199 31.4788C44.3988 31.5301 44.3679 31.5766 44.329 31.6158C44.2901 31.655 44.2438 31.6861 44.1929 31.7073C44.1421 31.7285 44.0875 31.7394 44.0325 31.7394Z" fill="#959CB5"/>
<path d="M43.6126 30.0429L42.1911 31.136C42.1334 31.1803 42.067 31.2115 41.9963 31.2276C41.9255 31.2436 41.8522 31.2441 41.7813 31.229C41.7103 31.2139 41.6435 31.1835 41.5853 31.1399C41.5271 31.0964 41.479 31.0407 41.4442 30.9767L40.1689 28.6322L40.6822 27.844C40.709 27.8029 40.7443 27.7682 40.7858 27.7423C40.8272 27.7164 40.8738 27.6998 40.9222 27.6939C40.9706 27.6879 41.0198 27.6927 41.0662 27.7078C41.1126 27.723 41.1552 27.7481 41.191 27.7815L43.6126 30.0429ZM43.6126 30.0429L45.0342 31.1361C45.0918 31.1804 45.1583 31.2116 45.229 31.2277C45.2997 31.2437 45.373 31.2442 45.444 31.2291C45.5149 31.214 45.5817 31.1836 45.6399 31.14C45.6981 31.0965 45.7463 31.0408 45.7811 30.9768L47.0563 28.6323L46.543 27.8441C46.5163 27.803 46.4809 27.7683 46.4395 27.7424C46.398 27.7165 46.3515 27.6999 46.3031 27.694C46.2546 27.688 46.2055 27.6928 46.1591 27.7079C46.1126 27.7231 46.0701 27.7482 46.0343 27.7816L43.6126 30.0429Z" fill="#C7CFE2"/>
<path d="M15.0131 26.8059C14.2964 24.8942 13.7279 21.6077 13.6052 19.8967C13.3716 16.6406 10.9342 13.9863 7.63927 13.9863C4.34438 13.9863 1.90698 16.6407 1.67339 19.8967C1.5506 21.6076 0.982155 24.8942 0.265428 26.8059C0.107499 27.2274 0.289803 27.6921 0.702045 27.8802C1.47006 28.2306 3.10755 28.9171 5.08244 29.1844H10.196C12.1616 28.9165 13.8106 28.2296 14.5764 27.8802C14.9887 27.6921 15.171 27.2274 15.0131 26.8059Z" fill="#5A4146"/>
<path d="M14.5767 27.8822C14.9888 27.694 15.1712 27.2293 15.0132 26.8079C14.2966 24.8961 13.728 21.6097 13.6053 19.8986C13.3718 16.6425 10.9343 13.9883 7.63955 13.9883L7.61466 13.9884C5.08647 13.9987 4.19302 17.4698 6.3694 18.7649C6.50012 18.8427 6.5839 18.8802 6.5839 18.8802L8.49013 29.1864H10.1963C12.1619 28.9182 13.8109 28.2314 14.5767 27.8822Z" fill="#694B4B"/>
<path d="M13.7059 30.8805L10.9917 29.5144C10.713 29.3741 10.4787 29.1585 10.3149 28.8917C10.1511 28.6249 10.0644 28.3174 10.0644 28.0038L10.0646 25.4707H5.03222V28.0039C5.03222 28.3175 4.94547 28.6249 4.7817 28.8917C4.61792 29.1585 4.38359 29.374 4.10495 29.5143L1.3908 30.8805C0.972872 31.0908 0.621391 31.4142 0.375743 31.8143C0.130095 32.2144 -1.28272e-05 32.6755 9.48512e-10 33.1459V38.1356C9.48512e-10 38.3595 0.0883631 38.5743 0.24565 38.7326C0.402938 38.891 0.616265 38.9799 0.838703 38.9799H14.2581C14.4805 38.9799 14.6938 38.891 14.8511 38.7326C15.0084 38.5743 15.0968 38.3595 15.0968 38.1356V33.146C15.0968 32.6756 14.9666 32.2145 14.721 31.8143C14.4753 31.4142 14.1238 31.0908 13.7059 30.8805Z" fill="#E6AF78"/>
<path d="M7.54784 28.848C8.45093 28.848 9.31594 28.6606 10.1089 28.327C10.0881 28.2206 10.0638 28.1147 10.0638 28.0038L10.064 25.4707H5.03162V28.0039C5.03162 28.1155 5.00735 28.2218 4.98633 28.3286C5.77984 28.6605 6.64444 28.848 7.54784 28.848Z" fill="#D29B6E"/>
<path d="M13.7059 30.8796L11.7723 29.9064C10.8757 31.3001 9.32069 32.2245 7.54843 32.2245C5.77616 32.2245 4.22104 31.3001 3.32445 29.9062L1.3909 30.8796C0.972962 31.09 0.621466 31.4133 0.375801 31.8134C0.130136 32.2136 8.26007e-06 32.6747 0 33.145L0 38.1348C0 38.3587 0.0883631 38.5735 0.24565 38.7318C0.402938 38.8902 0.616265 38.9791 0.838703 38.9791H14.2581C14.4805 38.9791 14.6938 38.8902 14.8511 38.7318C15.0084 38.5735 15.0968 38.3587 15.0968 38.1348V33.1451C15.0968 32.6747 14.9666 32.2136 14.721 31.8135C14.4753 31.4133 14.1238 31.09 13.7059 30.8796Z" fill="#D5DCED"/>
<path d="M7.5487 27.1604C4.99014 27.1604 2.87764 25.2382 2.55823 22.7501C2.51192 22.3895 2.68406 22.0361 3.00642 21.8724C3.39256 21.6763 3.9537 21.3456 4.49096 20.863C5.08927 20.3256 5.44027 19.7589 5.63852 19.3429C5.80924 18.9846 6.20168 18.7819 6.58416 18.8802C9.5372 19.6384 11.5476 21.1851 12.277 21.8166C12.4729 21.9861 12.5857 22.2361 12.5656 22.4954C12.3624 25.1057 10.1939 27.1604 7.5487 27.1604Z" fill="#F0C087"/>
<path d="M12.2769 21.8146C11.5476 21.1831 9.53707 19.6365 6.58404 18.8783C6.20155 18.78 5.80912 18.9826 5.63839 19.3409C5.48828 19.656 5.24016 20.0574 4.872 20.4672L4.87149 20.4701C4.75723 20.6005 4.63556 20.7311 4.49094 20.8612C3.95367 21.3439 3.39254 21.6744 3.0064 21.8705C2.68404 22.0342 2.51199 22.3878 2.5582 22.7483C2.84512 24.9829 4.58204 26.7615 6.78574 27.1007C5.78159 26.4131 5.03257 25.4673 5.03257 23.7813V22.5772C5.2231 22.4356 5.41495 22.2944 5.60772 22.1212C6.07143 21.7049 6.47514 21.2254 6.80717 20.6967C9.06623 21.4063 10.5978 22.5884 11.1784 23.091C11.3374 23.2313 11.7318 23.5973 12.1933 24.0332C12.3919 23.5522 12.5232 23.036 12.5654 22.4936C12.5856 22.2342 12.4727 21.9842 12.2769 21.8146Z" fill="#E6AF78"/>
<path d="M0.511266 31.625C0.188195 32.0567 0 32.5862 0 33.147V38.1367C0 38.3607 0.0883631 38.5754 0.24565 38.7338C0.402938 38.8921 0.616265 38.9811 0.838703 38.9811H3.35481V34.7267C3.35481 34.2137 3.12315 33.7285 2.72523 33.408L0.511266 31.625Z" fill="#C7CFE2"/>
<path d="M38.0499 29.7291L31.0325 27.1602L26.0002 28.8489L20.968 27.1603L13.9506 29.7293C13.3034 29.9662 12.7443 30.3978 12.3492 30.9657C11.9541 31.5335 11.7422 32.21 11.7422 32.9032V38.1367C11.7422 38.3606 11.8306 38.5754 11.9878 38.7337C12.1451 38.8921 12.3585 38.981 12.5809 38.981H39.4196C39.642 38.981 39.8554 38.8921 40.0126 38.7337C40.1699 38.5754 40.2583 38.3606 40.2583 38.1367V32.9032C40.2583 32.2099 40.0464 31.5334 39.6513 30.9656C39.2562 30.3977 38.6971 29.9661 38.0499 29.7291Z" fill="#D83724"/>
<path d="M25.1211 30.5352L24.3223 38.9784H27.6771L26.8783 30.5352H25.1211Z" fill="#707487"/>
<path d="M26.8805 31.6964H25.1194C25.0423 31.6964 24.9659 31.6811 24.8947 31.6514C24.8234 31.6217 24.7587 31.5782 24.7042 31.5233C24.6496 31.4684 24.6064 31.4032 24.5769 31.3315C24.5474 31.2598 24.5322 31.1829 24.5322 31.1053V28.8477H27.4675V31.1053C27.4675 31.1829 27.4523 31.2598 27.4228 31.3315C27.3933 31.4032 27.3501 31.4684 27.2956 31.5233C27.2411 31.5781 27.1764 31.6217 27.1051 31.6514C27.0339 31.6811 26.9576 31.6964 26.8805 31.6964Z" fill="#5B5D6E"/>
<path d="M39.355 30.6016C39.9213 31.2135 40.2578 32.0285 40.2578 32.9027V38.1362C40.2578 38.3601 40.1694 38.5748 40.0122 38.7332C39.8549 38.8915 39.6415 38.9805 39.4191 38.9805H35.2256V36.1577C35.2256 35.262 35.579 34.4029 36.2082 33.7696L39.355 30.6016Z" fill="#EF5227"/>
<path d="M35.2261 9.74631V2.67304C35.2261 1.74037 34.475 0.984375 33.5487 0.984375H23.4841C19.7785 0.984375 16.7744 4.00856 16.7744 7.73915V9.74631C16.7744 10.6538 16.9197 11.5554 17.2048 12.4163L17.484 13.2595C17.5695 13.5178 17.6131 13.7883 17.6131 14.0605V14.4938H34.3873V14.0605C34.3873 13.7882 34.4309 13.5178 34.5164 13.2595L34.7956 12.4163C35.0807 11.5554 35.2261 10.6538 35.2261 9.74631Z" fill="#5A4146"/>
<path d="M20.9678 4.41447C20.9678 6.30885 22.4932 7.84456 24.375 7.84456H24.8468L25.0745 14.4937H34.387V14.0604C34.387 13.7881 34.4306 13.5177 34.5161 13.2594L34.7953 12.4162C35.0804 11.5553 35.2257 10.6537 35.2257 9.74621V2.67304C35.2257 1.74037 34.4747 0.984375 33.5483 0.984375H24.375C22.4932 0.984375 20.9678 2.52009 20.9678 4.41447Z" fill="#694B4B"/>
<path d="M20.9678 21.248H31.0326V28.8468H20.9678V21.248Z" fill="#E6AF78"/>
<path d="M20.9679 24.1031C22.4495 24.9672 24.1648 25.4697 26.0001 25.4697C27.8354 25.4697 29.5508 24.9672 31.0323 24.1031V21.248H20.9678L20.9679 24.1031Z" fill="#D29B6E"/>
<path d="M25.9997 28.8484L23.3247 31.5413C22.9652 31.9033 22.3709 31.8625 22.0636 31.4547L19.29 27.7756L20.0155 26.2365C20.2296 25.7823 20.788 25.6159 21.2131 25.8797L25.9997 28.8484ZM25.9997 28.8484L28.6746 31.5413C29.0341 31.9033 29.6284 31.8625 29.9357 31.4547L32.7093 27.7756L31.9838 26.2365C31.7697 25.7823 31.2113 25.6159 30.7862 25.8797L25.9997 28.8484Z" fill="#EF5227"/>
<path d="M26.0004 23.7819C21.3684 23.7819 17.6133 20.0016 17.6133 15.3384V14.3492C17.6133 13.9014 17.79 13.4719 18.1045 13.1551L18.7993 12.4556C18.9551 12.2988 19.0786 12.1127 19.1629 11.9078C19.2472 11.7029 19.2906 11.4833 19.2906 11.2615V9.23751C19.2906 8.84652 19.5514 8.50687 19.9293 8.41699C21.9129 7.94534 28.0856 6.82812 32.2863 9.93839C32.5591 10.1403 32.7099 10.4721 32.7099 10.813V11.2615C32.7099 11.7094 32.8867 12.1389 33.2012 12.4556L33.896 13.1551C34.0517 13.3119 34.1753 13.4981 34.2596 13.703C34.3439 13.9079 34.3873 14.1275 34.3872 14.3492V15.3384C34.3875 20.0016 30.6325 23.7819 26.0004 23.7819Z" fill="#F0C087"/>
<path d="M32.2864 9.93893C29.332 7.75141 25.4075 7.65673 22.6456 7.9562C21.4806 8.08248 20.518 8.27766 19.9295 8.41753C19.5516 8.5074 19.2908 8.84706 19.2908 9.23804V11.262C19.2908 11.7099 19.1141 12.1394 18.7994 12.4562L18.1046 13.1556C17.9489 13.3125 17.8253 13.4986 17.741 13.7035C17.6567 13.9085 17.6133 14.1281 17.6133 14.3499V15.339C17.6133 19.6561 20.8338 23.2102 24.9869 23.7148C23.5398 22.1976 22.6455 20.1416 22.6455 17.872V11.7004C22.6455 10.8447 23.2775 10.1296 24.1208 10.0232C26.1336 9.7691 29.8201 9.61635 32.7099 11.2622V10.8135C32.7101 10.4726 32.559 10.1408 32.2864 9.93893Z" fill="#E6AF78"/>
<path d="M12.645 30.6016C12.0787 31.2135 11.7422 32.0285 11.7422 32.9027V38.1362C11.7422 38.3601 11.8306 38.5748 11.9878 38.7332C12.1451 38.8915 12.3585 38.9805 12.5809 38.9805H16.7744V36.1577C16.7744 35.262 16.421 34.4029 15.7918 33.7696L12.645 30.6016Z" fill="#EF5227"/>
</svg>
