<svg width="42" height="42" viewBox="0 0 42 42" fill="none" xmlns="http://www.w3.org/2000/svg">
<path d="M35.9872 20.5823C35.176 22.5406 35.1249 24.9616 35.9361 26.9199L36.6341 28.2873H6.50392C6.50392 28.2873 0.89427 25.1354 6.50392 19.5257L36.374 18.9102L35.9872 20.5823Z" fill="#F1F2F2"/>
<path d="M36.634 28.2876H6.50384C6.50384 28.2876 0.894364 25.1355 6.50384 19.526L36.3741 18.9102L35.9867 20.5826C35.8058 21.0225 35.6634 21.4772 35.5612 21.9417H8.22049C7.16128 21.9417 6.29999 22.803 6.29999 23.8613C6.29999 24.9206 7.16128 25.7819 8.22049 25.7819H35.5714C35.6631 26.1734 35.7846 26.5548 35.9358 26.9201L36.634 28.2876Z" fill="#DEE1E1"/>
<path d="M36.1777 29.5681L8.63653 29.5247C5.33701 29.5247 2.50339 27.4199 2.50339 24.1203C2.50339 23.3916 2.37649 22.436 2.61543 21.7903C3.45813 19.5124 5.6496 17.8887 8.22041 17.8887H36.475C37.2192 17.8887 37.8226 18.492 37.8226 19.2363C37.8226 19.9805 37.2192 20.5838 36.475 20.5838H15.0912L13.0028 21.074L11.1866 20.5838H8.22032C6.40931 20.5838 4.94119 22.052 4.94119 23.863C4.94119 25.674 6.40931 27.1421 8.22032 27.1421H36.4749C37.2191 27.1421 37.8225 27.7454 37.8225 28.4897C37.8225 28.5434 37.8193 28.5963 37.8132 28.6484C37.7347 29.3179 36.8683 29.5681 36.1777 29.5681Z" fill="#B7E546"/>
<path d="M37.8133 28.6483C37.7776 28.9486 37.6421 29.2283 37.4285 29.4425C37.1839 29.6863 36.8475 29.8374 36.4755 29.8374L22.5166 30.674L8.22082 29.8374C4.92087 29.8374 2.24609 27.1627 2.24609 23.8627C2.24609 23.0023 2.42787 22.1843 2.75574 21.4453V22.6736C2.75574 25.9735 5.43052 28.6483 8.73046 28.6483H37.8133Z" fill="#ABD641"/>
<path d="M15.0913 24.5106V20.582H12.2911L11.2969 20.6818L11.3566 24.3407C11.3566 24.3684 11.3634 24.3956 11.3763 24.4201C11.3892 24.4445 11.4079 24.4655 11.4307 24.481C11.4536 24.4966 11.4799 24.5064 11.5073 24.5095C11.5348 24.5126 11.5626 24.509 11.5884 24.4989L12.291 24.3272L13.0771 24.0194C13.1169 24.0038 13.1612 24.0038 13.2009 24.0194L14.8595 24.6689C14.8852 24.6789 14.913 24.6826 14.9405 24.6795C14.968 24.6764 14.9943 24.6666 15.0172 24.651C15.04 24.6354 15.0587 24.6144 15.0716 24.59C15.0845 24.5655 15.0913 24.5383 15.0913 24.5106Z" fill="#EF5227"/>
<path d="M12.2908 20.584V24.329L11.4184 24.6705C11.3071 24.7138 11.1865 24.6323 11.1865 24.5125V20.584H12.2908Z" fill="#D83724"/>
<path d="M32.1147 14.4577V16.3731L32.0298 17.2225C32.0298 17.5512 31.7631 17.8171 31.4352 17.8171L8.79767 17.7321C8.46895 17.7321 8.20308 17.4663 8.20308 17.1376L8.0332 14.4577L19.6542 13.9023L32.1147 14.4577Z" fill="#FDCD08"/>
<path d="M39.0882 14.5913C38.9193 14.5913 38.7572 14.5242 38.6378 14.4047C38.5183 14.2852 38.4512 14.1232 38.4512 13.9543V7.34604C38.4512 6.99422 38.7363 6.70898 39.0882 6.70898C39.4401 6.70898 39.7253 6.99422 39.7253 7.34604V13.9542C39.7253 14.0378 39.7088 14.1207 39.6768 14.198C39.6448 14.2753 39.5979 14.3455 39.5387 14.4047C39.4796 14.4639 39.4093 14.5108 39.332 14.5428C39.2547 14.5748 39.1719 14.5913 39.0882 14.5913Z" fill="#77777F"/>
<path d="M37.9495 16.0548C37.4178 17.3655 36.8827 18.6587 36.3509 19.9695C36.033 20.753 36.604 21.6116 37.443 21.6116L38.4263 21.6965H40.8181C41.6571 21.6965 42.228 20.8379 41.9102 20.0544L40.8013 17.3208L40.1038 16.0547L37.9495 16.0548Z" fill="#FDCD08"/>
<path d="M38.8063 17.8053C39.5052 17.8689 40.2383 17.6854 40.8018 17.3222L40.2056 15.832L39.2202 16.1266L39.2202 16.1264L37.9357 15.9549C37.7734 16.355 37.5376 16.9231 37.3753 17.3232L37.3754 17.3232L36.2669 20.0557C35.9492 20.8397 36.52 21.6976 37.3583 21.6976H38.7174C37.879 21.6976 37.3082 20.8397 37.6259 20.0557C37.902 19.3755 38.1779 18.6954 38.4539 18.0152C38.5111 17.874 38.6547 17.7914 38.8063 17.8053Z" fill="#FAAB18"/>
<path d="M41.0498 14.5635C41.0498 13.6955 40.4962 12.9579 39.7259 12.691C39.5262 12.6218 39.236 12.745 39.0131 12.745C37.9302 12.745 37.2637 13.4705 37.2637 14.5636C37.2637 15.6567 38.0738 16.3125 39.1567 16.3125C39.3797 16.3125 39.5262 16.5051 39.7259 16.436C40.4962 16.169 41.0498 15.4315 41.0498 14.5635Z" fill="#FDCD08"/>
<path d="M39.7264 16.436C39.5268 16.5057 39.3119 16.5431 39.0893 16.5431C38.0063 16.5431 37.1289 15.6563 37.1289 14.5631C37.1289 13.4708 38.0063 12.584 39.0893 12.584C39.3119 12.584 39.5268 12.6214 39.7264 12.691C38.956 12.9577 38.403 13.6959 38.403 14.5631C38.403 15.4312 38.956 16.1693 39.7264 16.436Z" fill="#FAAB18"/>
<path d="M39.2455 8.02764L33.6429 9.96718L32.1141 9.81038L21.2392 14.2611C20.4838 14.5226 19.6625 14.5226 18.9071 14.2611L8.03247 9.98391L6.50354 9.96726L0.900601 8.02764C0.260998 7.8062 0.260998 6.90167 0.900601 6.68031L19.1195 0.373302C19.7372 0.15942 20.4089 0.15942 21.0266 0.373302L39.2455 6.68031C39.885 6.90167 39.885 7.8062 39.2455 8.02764Z" fill="#868491"/>
<path d="M33.6433 9.39136V9.96641L21.2394 14.2602C20.4839 14.5218 19.6624 14.5218 18.9069 14.2602L6.50391 9.96641V9.39136C6.50391 8.17926 7.36945 7.14468 8.56287 6.92978C12.3546 6.25026 16.2271 5.90625 20.0732 5.90625C23.9193 5.90625 27.7926 6.25026 31.5843 6.92978C32.1619 7.03426 32.686 7.33835 33.0614 7.78769C33.4352 8.23362 33.6433 8.80442 33.6433 9.39136Z" fill="#77777F"/>
<path d="M32.1148 9.39368V14.4587H8.28807L8.20312 9.56356C8.20312 9.09299 8.54034 8.69037 9.00327 8.60713C9.24594 8.56364 9.31899 8.35172 9.56209 8.31103C13.0358 7.7299 16.5516 7.43772 20.0736 7.4375C23.8356 7.4375 27.5976 7.77132 31.3146 8.43725C31.5457 8.47887 31.7461 8.60034 31.888 8.77022C32.0307 8.9401 32.1148 9.1584 32.1148 9.39368Z" fill="#868491"/>
<path d="M32.1147 16.3731V17.3074C32.1147 17.6362 31.848 17.902 31.5201 17.902H8.62779C8.47009 17.902 8.31886 17.8394 8.20735 17.7279C8.09585 17.6164 8.0332 17.4651 8.0332 17.3074V14.4577L8.79767 13.9023L9.56213 14.4577V15.9484C9.56213 16.061 9.60688 16.1691 9.68653 16.2487C9.76617 16.3284 9.8742 16.3731 9.98684 16.3731H32.1147Z" fill="#FAAB18"/>
<path d="M9.56213 8.31055V14.4577H8.0332V9.39269C8.0332 8.92212 8.37042 8.5195 8.83334 8.43626C9.07627 8.39294 9.3192 8.35047 9.56213 8.31055Z" fill="#77777F"/>
<path d="M38.2314 38.8491C37.8297 37.8795 37.623 36.8402 37.623 35.7907C37.623 34.7411 37.8297 33.7019 38.2314 32.7322L38.4899 31.584H3.75663C3.75663 31.584 -0.15327 35.8347 4.01069 39.9985L38.7161 40.2588L38.2314 38.8491Z" fill="#F1F2F2"/>
<path d="M38.716 40.2581L4.01097 39.9982C-0.153672 35.8344 3.75699 31.584 3.75699 31.584L38.6569 31.6485L38.2319 32.7315C38.0759 33.1075 37.9489 33.4948 37.8522 33.8901H5.97479C4.91558 33.8901 4.05429 34.7514 4.05429 35.8098C4.05429 36.869 4.91558 37.7303 5.97479 37.7303H37.8624C37.9581 38.1117 38.0816 38.4856 38.2319 38.849L38.716 40.2581Z" fill="#DEE1E1"/>
<path d="M38.1314 41.4872L6.72866 41.4294C3.42914 41.4294 0.52621 39.5674 0.52621 36.2679C0.52621 35.2207 0.270114 33.7788 0.743403 32.923C1.76142 31.0824 3.7227 29.8359 5.97498 29.8359H38.7215C39.4658 29.8359 40.0691 30.4393 40.0691 31.1835C40.0691 31.9278 39.4658 32.5311 38.7215 32.5311H30.608L28.488 33.0004L26.7036 32.5311H5.97507C4.16405 32.5311 2.69593 33.9992 2.69593 35.8102C2.69593 37.6213 4.16405 39.0894 5.97507 39.0894H38.7215C39.4658 39.0894 40.0691 39.6927 40.0691 40.437C40.0691 40.5201 40.0616 40.6014 40.0472 40.6804C39.9326 41.3084 38.7926 41.4872 38.1314 41.4872Z" fill="#EF5227"/>
<path d="M40.047 40.6811C39.9968 40.9563 39.8635 41.201 39.6741 41.3904C39.549 41.5157 39.4005 41.6151 39.237 41.6829C39.0734 41.7507 38.8981 41.7855 38.721 41.7853H5.97472C2.67478 41.7853 0 39.1106 0 35.8106C0 34.6299 0.342311 33.5291 0.934347 32.6016V34.7064C0.934347 38.0063 3.60913 40.6811 6.90907 40.6811H40.047Z" fill="#D83724"/>
<path d="M30.6077 36.4916V32.5312H27.9773L26.8105 32.6023L26.8731 36.3217C26.8731 36.3494 26.8798 36.3766 26.8927 36.4011C26.9057 36.4255 26.9244 36.4464 26.9472 36.462C26.97 36.4776 26.9963 36.4874 27.0238 36.4905C27.0513 36.4936 27.0791 36.49 27.1049 36.4799L27.9772 36.2417L28.5935 36.0004C28.6334 35.9848 28.6776 35.9848 28.7174 36.0004L30.3759 36.6499C30.4017 36.6599 30.4295 36.6636 30.457 36.6605C30.4845 36.6573 30.5108 36.6476 30.5336 36.632C30.5565 36.6164 30.5752 36.5954 30.5881 36.571C30.601 36.5465 30.6077 36.5193 30.6077 36.4916Z" fill="#FDCD08"/>
<path d="M27.9772 32.5293V36.2404L26.935 36.6481C26.8237 36.6914 26.7031 36.6098 26.7031 36.4901V32.5293H27.9772Z" fill="#FAAB18"/>
</svg>
