<svg width="34" height="48" viewBox="0 0 34 48" fill="none" xmlns="http://www.w3.org/2000/svg">
<path d="M31.1225 47.9997H2.87846C1.15637 47.9997 -0.18154 46.5344 0.0153527 44.8647L1.18902 34.93C1.32349 33.7956 2.08225 32.8234 3.1666 32.3959L12.6088 28.6722C12.9891 28.5222 13.3954 28.4453 13.8055 28.4453H20.1944C20.6046 28.4453 21.0118 28.5222 21.3921 28.6722L30.8334 32.3959C31.366 32.6056 31.8309 32.9517 32.1789 33.3977C32.527 33.8437 32.7453 34.373 32.8109 34.93L33.9846 44.8647C34.1815 46.5344 32.8446 47.9997 31.1225 47.9997Z" fill="#E6E7E8"/>
<path d="M31.1225 48.0009H2.87846C1.15637 48.0009 -0.18154 46.5355 0.0153527 44.8659L1.18902 34.9312C1.32349 33.7968 2.08225 32.8246 3.1666 32.3971L10.9126 29.3418C11.8942 32.2387 14.668 40.0255 16.5908 41.4684C18.6385 43.0059 22.2028 32.3127 23.1392 29.3624L30.8334 32.3971C31.366 32.6068 31.8309 32.9529 32.1789 33.3989C32.527 33.8448 32.7453 34.3742 32.8109 34.9312L33.9846 44.8659C34.1815 46.5355 32.8446 48.0009 31.1225 48.0009Z" fill="#393D63"/>
<path d="M20.4023 26.333L20.3715 26.3509C19.4082 26.92 18.3071 27.2288 17.1812 27.2456C16.0553 27.2624 14.9451 26.9866 13.9644 26.4465L13.9403 26.4334C13.7607 26.334 13.584 26.2309 13.4111 26.123V33.6868H20.5905V26.2177C20.5271 26.2571 20.4647 26.2955 20.4023 26.333Z" fill="#EEAB90"/>
<path d="M17.7242 36.4072C17.68 36.4719 17.6579 36.5478 17.6714 36.6238L17.706 36.8291L17.9105 40.4375L18.0949 43.6841L17.4073 44.4519C17.2997 44.5728 17.1499 44.6328 17 44.6328C16.8502 44.6328 16.7004 44.5728 16.5928 44.4519L15.8312 43.6016C15.9032 42.5488 15.9762 41.4688 16.0415 40.49C16.1769 38.466 16.2806 36.8778 16.2806 36.8778L16.32 36.6894C16.3392 36.591 16.3123 36.4916 16.2557 36.4072V36.4063L15.8158 35.4566C15.5593 35.2185 15.5613 34.851 15.8225 34.6166L16.3584 34.1347C16.709 33.8178 17.293 33.8028 17.6666 34.1L18.19 34.6063C18.4321 34.8416 18.4301 35.195 18.1833 35.4266L17.7242 36.4063V36.4072Z" fill="#F2614E"/>
<path d="M24.8865 33.6914L22.9118 34.8614L24.3928 36.6511L18.0951 43.6833L17.4074 44.4511C17.2999 44.572 17.15 44.632 17.0002 44.632C16.8504 44.632 16.7005 44.572 16.593 44.4511L15.8313 43.6008L9.60759 36.6511L11.0886 34.8614L9.11392 33.6914C9.11392 33.6914 8.26392 29.2861 13.411 28.2539C13.411 28.2539 13.6367 34.8445 16.0417 40.4892C16.2702 41.0273 16.5161 41.5561 16.7812 42.0698C16.8532 42.2095 17.0559 42.2105 17.1289 42.0717C17.4093 41.5402 17.6696 40.9936 17.9107 40.4367C20.357 34.8033 20.5894 28.2539 20.5894 28.2539C25.7365 29.2861 24.8865 33.6914 24.8865 33.6914Z" fill="#515987"/>
<path d="M14.4075 35.3358L16.3476 33.7092L16.3966 33.7345C16.5871 33.8343 16.8001 33.886 17.0163 33.885C17.2325 33.884 17.445 33.8304 17.6346 33.7289L17.6586 33.7158L19.567 35.3161C20.2643 32.3489 20.4929 29.767 20.5611 28.7339C20.2759 30.9539 17.795 33.3258 17.5338 33.5695L17.4473 33.5995C17.1688 33.6961 16.8643 33.697 16.5848 33.6023L16.4485 33.5564C16.1161 33.2433 13.7064 30.908 13.4336 28.7227C13.5008 29.7502 13.7227 32.3498 14.4075 35.3358Z" fill="white"/>
<path d="M8.2309 16.6922C8.2309 16.6922 7.44141 12.8119 7.44141 9.25219C7.44141 5.6925 8.7966 0 16.2968 0C16.2968 0 19.5239 0.0290625 21.6359 0.81375C22.9469 1.30031 24.5509 1.05 25.374 0.863437C25.6429 0.8025 25.8955 1.01344 25.8763 1.2825C25.8062 2.26219 25.4739 3.61781 25.8024 4.55344C26.0213 5.17781 26.5582 6.915 26.5582 9.20344C26.5582 11.4919 25.9628 16.7681 25.9628 16.7681C25.9628 16.7681 25.2962 13.4775 24.1619 11.9494C23.4752 11.0241 23.358 9.72375 23.3427 9.11812C23.3388 8.955 23.1746 8.84156 23.0151 8.89125C21.5552 9.3525 15.5323 11.0297 10.7799 8.98969C10.6253 8.92312 10.4495 9.02156 10.4303 9.18562C10.3535 9.8325 10.1307 11.2566 9.57937 12.1012C8.90129 13.1372 8.1531 15.8025 8.2309 16.6922Z" fill="#4F3B30"/>
<path d="M27.4158 14.9048C27.4158 14.4079 26.7665 14.3469 26.2095 14.3854C26.0798 15.7344 25.9626 16.7676 25.9626 16.7676C25.9626 16.7676 25.2961 13.4769 24.1618 11.9488C23.4751 11.0235 23.3579 9.72319 23.3425 9.11757C23.3387 8.95444 23.1745 8.84101 23.015 8.89069C21.5551 9.35194 15.5321 11.0291 10.7798 8.98913C10.6252 8.92257 10.4494 9.02101 10.4302 9.18507C10.3534 9.83194 10.1306 11.256 9.57926 12.1007C8.90214 13.1376 8.15491 15.8038 8.23271 16.6935C8.23271 16.6935 8.0435 15.7607 7.84948 14.3901C7.2809 14.3432 6.58553 14.391 6.58553 14.9048C6.58553 15.7523 6.30412 17.8391 8.16163 18.5873C8.80609 21.8713 10.897 24.7588 13.9407 26.4341L13.9647 26.4473C15.9615 27.5469 18.4106 27.5094 20.3719 26.3516L20.4026 26.3338C23.3166 24.6126 25.2903 21.7682 25.8897 18.5676C27.6924 17.8026 27.4158 15.7448 27.4158 14.9048Z" fill="#F8CCB9"/>
</svg>
